<svg width="286" height="322" viewBox="0 0 286 322" fill="none" xmlns="http://www.w3.org/2000/svg">
<g opacity="0.6" clip-path="url(#clip0)">
<mask id="mask0" mask-type="alpha" maskUnits="userSpaceOnUse" x="-244" y="0" width="530" height="323">
<path d="M198.448 120.636C198.448 120.926 198.447 121.215 198.445 121.504C247.859 128.007 286 170.288 286 221.477C286 272.665 247.86 314.945 198.448 321.45V322.318H-159.575V320.988C-207.46 313.149 -244 271.58 -244 221.477C-244 168.747 -203.528 125.47 -151.954 121.015C-150.326 66.7463 -105.822 23.2529 -51.1593 23.2529C-34.7728 23.2529 -19.2992 27.1614 -5.61989 34.0971C16.0421 13.1452 45.548 0.25293 78.0649 0.25293C144.551 0.25293 198.448 54.1505 198.448 120.636Z" fill="white"/>
</mask>
<g mask="url(#mask0)">
<path d="M2.93637 3.15984C3.99231 3.15984 4.84833 2.30384 4.84833 1.24789C4.84833 0.191953 3.99231 -0.664062 2.93637 -0.664062C1.88043 -0.664062 1.02441 0.191953 1.02441 1.24789C1.02441 2.30384 1.88043 3.15984 2.93637 3.15984Z" fill="#FD5750"/>
<path d="M18.9363 3.41237C20.1317 3.41237 21.1008 2.44327 21.1008 1.24782C21.1008 0.0523645 20.1317 -0.916748 18.9363 -0.916748C17.7408 -0.916748 16.7717 0.0523645 16.7717 1.24782C16.7717 2.44327 17.7408 3.41237 18.9363 3.41237Z" fill="#FD5750"/>
<path d="M34.9363 2.92368C35.8619 2.92368 36.6122 2.17338 36.6122 1.24785C36.6122 0.322313 35.8619 -0.427979 34.9363 -0.427979C34.0108 -0.427979 33.2605 0.322313 33.2605 1.24785C33.2605 2.17338 34.0108 2.92368 34.9363 2.92368Z" fill="#FD5750"/>
<path opacity="0.3" d="M50.9363 3.98451C52.4477 3.98451 53.673 2.75928 53.673 1.24788C53.673 -0.263525 52.4477 -1.48877 50.9363 -1.48877C49.4249 -1.48877 48.1997 -0.263525 48.1997 1.24788C48.1997 2.75928 49.4249 3.98451 50.9363 3.98451Z" fill="#FD5750"/>
<path d="M66.9362 3.929C68.417 3.929 69.6174 2.72855 69.6174 1.24771C69.6174 -0.23313 68.417 -1.43359 66.9362 -1.43359C65.4553 -1.43359 64.2549 -0.23313 64.2549 1.24771C64.2549 2.72855 65.4553 3.929 66.9362 3.929Z" fill="#FD5750"/>
<path d="M82.9363 3.4949C84.1773 3.4949 85.1833 2.48885 85.1833 1.24782C85.1833 0.00678444 84.1773 -0.999268 82.9363 -0.999268C81.6952 -0.999268 80.6892 0.00678444 80.6892 1.24782C80.6892 2.48885 81.6952 3.4949 82.9363 3.4949Z" fill="#FD5750"/>
<path d="M98.9363 3.8506C100.374 3.8506 101.539 2.6853 101.539 1.24782C101.539 -0.189663 100.374 -1.35498 98.9363 -1.35498C97.4988 -1.35498 96.3335 -0.189663 96.3335 1.24782C96.3335 2.6853 97.4988 3.8506 98.9363 3.8506Z" fill="#FD5750"/>
<path d="M114.936 2.76245C115.773 2.76245 116.451 2.08432 116.451 1.2478C116.451 0.411285 115.773 -0.266846 114.936 -0.266846C114.1 -0.266846 113.422 0.411285 113.422 1.2478C113.422 2.08432 114.1 2.76245 114.936 2.76245Z" fill="#FD5750"/>
<path opacity="0.3" d="M130.936 4.15048C132.539 4.15048 133.839 2.85093 133.839 1.24785C133.839 -0.35523 132.539 -1.65479 130.936 -1.65479C129.333 -1.65479 128.034 -0.35523 128.034 1.24785C128.034 2.85093 129.333 4.15048 130.936 4.15048Z" fill="#FD5750"/>
<path d="M146.936 4.07739C148.499 4.07739 149.766 2.81049 149.766 1.24768C149.766 -0.315125 148.499 -1.58203 146.936 -1.58203C145.373 -1.58203 144.106 -0.315125 144.106 1.24768C144.106 2.81049 145.373 4.07739 146.936 4.07739Z" fill="#FD5750"/>
<path d="M162.936 3.07254C163.944 3.07254 164.761 2.25553 164.761 1.2477C164.761 0.239865 163.944 -0.577148 162.936 -0.577148C161.928 -0.577148 161.111 0.239865 161.111 1.2477C161.111 2.25553 161.928 3.07254 162.936 3.07254Z" fill="#FD5750"/>
<path d="M178.936 3.43068C180.142 3.43068 181.119 2.45338 181.119 1.24782C181.119 0.0422522 180.142 -0.935059 178.936 -0.935059C177.731 -0.935059 176.753 0.0422522 176.753 1.24782C176.753 2.45338 177.731 3.43068 178.936 3.43068Z" fill="#FD5750"/>
<path opacity="0.3" d="M194.936 2.85968C195.826 2.85968 196.548 2.13798 196.548 1.24771C196.548 0.357445 195.826 -0.364258 194.936 -0.364258C194.046 -0.364258 193.324 0.357445 193.324 1.24771C193.324 2.13798 194.046 2.85968 194.936 2.85968Z" fill="#FD5750"/>
<path opacity="0.3" d="M210.936 4.0643C212.492 4.0643 213.753 2.80328 213.753 1.24773C213.753 -0.307822 212.492 -1.56885 210.936 -1.56885C209.381 -1.56885 208.12 -0.307822 208.12 1.24773C208.12 2.80328 209.381 4.0643 210.936 4.0643Z" fill="#FD5750"/>
<path d="M226.936 3.31017C228.075 3.31017 228.999 2.38679 228.999 1.24774C228.999 0.108693 228.075 -0.814697 226.936 -0.814697C225.797 -0.814697 224.874 0.108693 224.874 1.24774C224.874 2.38679 225.797 3.31017 226.936 3.31017Z" fill="#FD5750"/>
<path opacity="0.3" d="M242.936 3.73526C244.31 3.73526 245.424 2.62162 245.424 1.24788C245.424 -0.125863 244.31 -1.2395 242.936 -1.2395C241.563 -1.2395 240.449 -0.125863 240.449 1.24788C240.449 2.62162 241.563 3.73526 242.936 3.73526Z" fill="#FD5750"/>
<path d="M258.936 4.21411C260.575 4.21411 261.903 2.88605 261.903 1.2478C261.903 -0.390445 260.575 -1.71851 258.936 -1.71851C257.298 -1.71851 255.97 -0.390445 255.97 1.2478C255.97 2.88605 257.298 4.21411 258.936 4.21411Z" fill="#FD5750"/>
<path opacity="0.3" d="M274.936 2.94444C275.873 2.94444 276.633 2.18481 276.633 1.24774C276.633 0.310675 275.873 -0.448975 274.936 -0.448975C273.999 -0.448975 273.24 0.310675 273.24 1.24774C273.24 2.18481 273.999 2.94444 274.936 2.94444Z" fill="#FD5750"/>
<path d="M-1.06381 19.5096C0.18539 19.5096 1.19806 18.4969 1.19806 17.2477C1.19806 15.9985 0.18539 14.9858 -1.06381 14.9858C-2.31301 14.9858 -3.32568 15.9985 -3.32568 17.2477C-3.32568 18.4969 -2.31301 19.5096 -1.06381 19.5096Z" fill="#FD5750"/>
<path opacity="0.3" d="M14.9364 19.842C16.369 19.842 17.5305 18.6806 17.5305 17.2479C17.5305 15.8152 16.369 14.6538 14.9364 14.6538C13.5037 14.6538 12.3423 15.8152 12.3423 17.2479C12.3423 18.6806 13.5037 19.842 14.9364 19.842Z" fill="#FD5750"/>
<path d="M30.9362 19.0277C31.9193 19.0277 32.7162 18.2308 32.7162 17.2478C32.7162 16.2647 31.9193 15.4678 30.9362 15.4678C29.9532 15.4678 29.1562 16.2647 29.1562 17.2478C29.1562 18.2308 29.9532 19.0277 30.9362 19.0277Z" fill="#FD5750"/>
<path d="M46.9363 20.1079C48.5159 20.1079 49.7964 18.8274 49.7964 17.2478C49.7964 15.6682 48.5159 14.3877 46.9363 14.3877C45.3567 14.3877 44.0762 15.6682 44.0762 17.2478C44.0762 18.8274 45.3567 20.1079 46.9363 20.1079Z" fill="#FD5750"/>
<path opacity="0.3" d="M62.9363 18.7847C63.7851 18.7847 64.4733 18.0966 64.4733 17.2478C64.4733 16.399 63.7851 15.7109 62.9363 15.7109C62.0875 15.7109 61.3994 16.399 61.3994 17.2478C61.3994 18.0966 62.0875 18.7847 62.9363 18.7847Z" fill="#FD5750"/>
<path opacity="0.3" d="M78.9364 18.8313C79.8109 18.8313 80.5198 18.1224 80.5198 17.2479C80.5198 16.3734 79.8109 15.6646 78.9364 15.6646C78.0619 15.6646 77.353 16.3734 77.353 17.2479C77.353 18.1224 78.0619 18.8313 78.9364 18.8313Z" fill="#FD5750"/>
<path d="M94.9363 19.9486C96.4279 19.9486 97.6371 18.7395 97.6371 17.2479C97.6371 15.7563 96.4279 14.5471 94.9363 14.5471C93.4448 14.5471 92.2356 15.7563 92.2356 17.2479C92.2356 18.7395 93.4448 19.9486 94.9363 19.9486Z" fill="#FD5750"/>
<path opacity="0.3" d="M110.936 18.8865C111.841 18.8865 112.575 18.1528 112.575 17.2477C112.575 16.3426 111.841 15.6089 110.936 15.6089C110.031 15.6089 109.297 16.3426 109.297 17.2477C109.297 18.1528 110.031 18.8865 110.936 18.8865Z" fill="#FD5750"/>
<path d="M126.936 18.8054C127.797 18.8054 128.494 18.108 128.494 17.2478C128.494 16.3875 127.797 15.6902 126.936 15.6902C126.076 15.6902 125.379 16.3875 125.379 17.2478C125.379 18.108 126.076 18.8054 126.936 18.8054Z" fill="#FD5750"/>
<path d="M142.936 19.2312C144.032 19.2312 144.92 18.3432 144.92 17.2478C144.92 16.1524 144.032 15.2644 142.936 15.2644C141.841 15.2644 140.953 16.1524 140.953 17.2478C140.953 18.3432 141.841 19.2312 142.936 19.2312Z" fill="#FD5750"/>
<path opacity="0.3" d="M158.936 19.4768C160.167 19.4768 161.165 18.4789 161.165 17.2478C161.165 16.0168 160.167 15.0188 158.936 15.0188C157.705 15.0188 156.707 16.0168 156.707 17.2478C156.707 18.4789 157.705 19.4768 158.936 19.4768Z" fill="#FD5750"/>
<path d="M174.936 19.7065C176.294 19.7065 177.395 18.6057 177.395 17.2479C177.395 15.8901 176.294 14.7893 174.936 14.7893C173.578 14.7893 172.478 15.8901 172.478 17.2479C172.478 18.6057 173.578 19.7065 174.936 19.7065Z" fill="#FD5750"/>
<path opacity="0.3" d="M190.936 20.0125C192.463 20.0125 193.701 18.7746 193.701 17.2477C193.701 15.7207 192.463 14.4829 190.936 14.4829C189.409 14.4829 188.171 15.7207 188.171 17.2477C188.171 18.7746 189.409 20.0125 190.936 20.0125Z" fill="#FD5750"/>
<path opacity="0.3" d="M206.936 19.1101C207.965 19.1101 208.799 18.2763 208.799 17.2478C208.799 16.2193 207.965 15.3855 206.936 15.3855C205.908 15.3855 205.074 16.2193 205.074 17.2478C205.074 18.2763 205.908 19.1101 206.936 19.1101Z" fill="#FD5750"/>
<path d="M222.936 19.7114C224.297 19.7114 225.4 18.6085 225.4 17.2479C225.4 15.8874 224.297 14.7844 222.936 14.7844C221.576 14.7844 220.473 15.8874 220.473 17.2479C220.473 18.6085 221.576 19.7114 222.936 19.7114Z" fill="#FD5750"/>
<path d="M238.936 19.4032C240.127 19.4032 241.092 18.4382 241.092 17.2478C241.092 16.0575 240.127 15.0925 238.936 15.0925C237.746 15.0925 236.781 16.0575 236.781 17.2478C236.781 18.4382 237.746 19.4032 238.936 19.4032Z" fill="#FD5750"/>
<path d="M254.936 19.1403C255.981 19.1403 256.829 18.293 256.829 17.2479C256.829 16.2027 255.981 15.3555 254.936 15.3555C253.891 15.3555 253.044 16.2027 253.044 17.2479C253.044 18.293 253.891 19.1403 254.936 19.1403Z" fill="#FD5750"/>
<path opacity="0.3" d="M270.936 19.7947C272.343 19.7947 273.483 18.6545 273.483 17.2479C273.483 15.8414 272.343 14.7012 270.936 14.7012C269.53 14.7012 268.39 15.8414 268.39 17.2479C268.39 18.6545 269.53 19.7947 270.936 19.7947Z" fill="#FD5750"/>
<path d="M286.936 20.1414C288.534 20.1414 289.83 18.8459 289.83 17.2478C289.83 15.6497 288.534 14.3542 286.936 14.3542C285.338 14.3542 284.043 15.6497 284.043 17.2478C284.043 18.8459 285.338 20.1414 286.936 20.1414Z" fill="#FD5750"/>
<path d="M10.9363 35.983C12.4469 35.983 13.6714 34.7584 13.6714 33.2478C13.6714 31.7373 12.4469 30.5127 10.9363 30.5127C9.42574 30.5127 8.20117 31.7373 8.20117 33.2478C8.20117 34.7584 9.42574 35.983 10.9363 35.983Z" fill="#FD5750"/>
<path d="M26.9364 34.9328C27.8669 34.9328 28.6213 34.1784 28.6213 33.2479C28.6213 32.3173 27.8669 31.563 26.9364 31.563C26.0058 31.563 25.2515 32.3173 25.2515 33.2479C25.2515 34.1784 26.0058 34.9328 26.9364 34.9328Z" fill="#FD5750"/>
<path opacity="0.3" d="M42.9364 36.0127C44.4635 36.0127 45.7014 34.7748 45.7014 33.2477C45.7014 31.7206 44.4635 30.4827 42.9364 30.4827C41.4093 30.4827 40.1714 31.7206 40.1714 33.2477C40.1714 34.7748 41.4093 36.0127 42.9364 36.0127Z" fill="#FD5750"/>
<path opacity="0.3" d="M58.9363 34.8508C59.8216 34.8508 60.5393 34.1331 60.5393 33.2478C60.5393 32.3625 59.8216 31.6448 58.9363 31.6448C58.051 31.6448 57.3333 32.3625 57.3333 33.2478C57.3333 34.1331 58.051 34.8508 58.9363 34.8508Z" fill="#FD5750"/>
<path opacity="0.3" d="M74.9362 36.1261C76.5259 36.1261 77.8146 34.8374 77.8146 33.2478C77.8146 31.6581 76.5259 30.3694 74.9362 30.3694C73.3465 30.3694 72.0579 31.6581 72.0579 33.2478C72.0579 34.8374 73.3465 36.1261 74.9362 36.1261Z" fill="#FD5750"/>
<path opacity="0.3" d="M90.9363 34.9892C91.898 34.9892 92.6776 34.2096 92.6776 33.2479C92.6776 32.2862 91.898 31.5066 90.9363 31.5066C89.9747 31.5066 89.1951 32.2862 89.1951 33.2479C89.1951 34.2096 89.9747 34.9892 90.9363 34.9892Z" fill="#FD5750"/>
<path opacity="0.3" d="M106.936 35.5608C108.214 35.5608 109.249 34.5252 109.249 33.2477C109.249 31.9702 108.214 30.9346 106.936 30.9346C105.659 30.9346 104.623 31.9702 104.623 33.2477C104.623 34.5252 105.659 35.5608 106.936 35.5608Z" fill="#FD5750"/>
<path d="M122.936 34.7877C123.787 34.7877 124.476 34.0982 124.476 33.2477C124.476 32.3972 123.787 31.7078 122.936 31.7078C122.086 31.7078 121.396 32.3972 121.396 33.2477C121.396 34.0982 122.086 34.7877 122.936 34.7877Z" fill="#FD5750"/>
<path d="M138.936 34.9318C139.866 34.9318 140.62 34.1779 140.62 33.2479C140.62 32.3179 139.866 31.564 138.936 31.564C138.006 31.564 137.252 32.3179 137.252 33.2479C137.252 34.1779 138.006 34.9318 138.936 34.9318Z" fill="#FD5750"/>
<path d="M154.936 36.0393C156.478 36.0393 157.728 34.7895 157.728 33.2478C157.728 31.7061 156.478 30.4563 154.936 30.4563C153.395 30.4563 152.145 31.7061 152.145 33.2478C152.145 34.7895 153.395 36.0393 154.936 36.0393Z" fill="#FD5750"/>
<path opacity="0.3" d="M170.936 35.8156C172.354 35.8156 173.504 34.6659 173.504 33.2477C173.504 31.8296 172.354 30.6799 170.936 30.6799C169.518 30.6799 168.368 31.8296 168.368 33.2477C168.368 34.6659 169.518 35.8156 170.936 35.8156Z" fill="#FD5750"/>
<path d="M186.936 34.7859C187.786 34.7859 188.474 34.0972 188.474 33.2477C188.474 32.3982 187.786 31.7095 186.936 31.7095C186.087 31.7095 185.398 32.3982 185.398 33.2477C185.398 34.0972 186.087 34.7859 186.936 34.7859Z" fill="#FD5750"/>
<path d="M202.936 35.3155C204.078 35.3155 205.004 34.3897 205.004 33.2477C205.004 32.1057 204.078 31.1799 202.936 31.1799C201.794 31.1799 200.869 32.1057 200.869 33.2477C200.869 34.3897 201.794 35.3155 202.936 35.3155Z" fill="#FD5750"/>
<path opacity="0.3" d="M218.936 35.3068C220.073 35.3068 220.995 34.3849 220.995 33.2478C220.995 32.1106 220.073 31.1887 218.936 31.1887C217.799 31.1887 216.877 32.1106 216.877 33.2478C216.877 34.3849 217.799 35.3068 218.936 35.3068Z" fill="#FD5750"/>
<path d="M234.936 35.2185C236.025 35.2185 236.907 34.3361 236.907 33.2477C236.907 32.1592 236.025 31.2769 234.936 31.2769C233.848 31.2769 232.965 32.1592 232.965 33.2477C232.965 34.3361 233.848 35.2185 234.936 35.2185Z" fill="#FD5750"/>
<path d="M250.936 35.6864C252.283 35.6864 253.375 34.5946 253.375 33.2478C253.375 31.9009 252.283 30.8091 250.936 30.8091C249.589 30.8091 248.498 31.9009 248.498 33.2478C248.498 34.5946 249.589 35.6864 250.936 35.6864Z" fill="#FD5750"/>
<path opacity="0.3" d="M266.936 35.9362C268.421 35.9362 269.625 34.7326 269.625 33.2479C269.625 31.7632 268.421 30.5596 266.936 30.5596C265.452 30.5596 264.248 31.7632 264.248 33.2479C264.248 34.7326 265.452 35.9362 266.936 35.9362Z" fill="#FD5750"/>
<path d="M282.936 35.6112C284.242 35.6112 285.3 34.5531 285.3 33.2478C285.3 31.9426 284.242 30.8845 282.936 30.8845C281.631 30.8845 280.573 31.9426 280.573 33.2478C280.573 34.5531 281.631 35.6112 282.936 35.6112Z" fill="#FD5750"/>
<path d="M2.93643 51.2613C4.0485 51.2613 4.95001 50.3598 4.95001 49.2477C4.95001 48.1356 4.0485 47.2341 2.93643 47.2341C1.82436 47.2341 0.922852 48.1356 0.922852 49.2477C0.922852 50.3598 1.82436 51.2613 2.93643 51.2613Z" fill="#FD5750"/>
<path d="M18.9362 50.8666C19.8303 50.8666 20.5551 50.1418 20.5551 49.2477C20.5551 48.3537 19.8303 47.6289 18.9362 47.6289C18.0422 47.6289 17.3174 48.3537 17.3174 49.2477C17.3174 50.1418 18.0422 50.8666 18.9362 50.8666Z" fill="#FD5750"/>
<path opacity="0.3" d="M34.9364 52.2409C36.5895 52.2409 37.9297 50.9008 37.9297 49.2477C37.9297 47.5945 36.5895 46.2544 34.9364 46.2544C33.2832 46.2544 31.9431 47.5945 31.9431 49.2477C31.9431 50.9008 33.2832 52.2409 34.9364 52.2409Z" fill="#FD5750"/>
<path opacity="0.3" d="M50.9363 51.4231C52.1377 51.4231 53.1116 50.4492 53.1116 49.2478C53.1116 48.0464 52.1377 47.0725 50.9363 47.0725C49.7349 47.0725 48.761 48.0464 48.761 49.2478C48.761 50.4492 49.7349 51.4231 50.9363 51.4231Z" fill="#FD5750"/>
<path opacity="0.3" d="M66.9363 50.8192C67.8041 50.8192 68.5076 50.1156 68.5076 49.2478C68.5076 48.38 67.8041 47.6765 66.9363 47.6765C66.0685 47.6765 65.365 48.38 65.365 49.2478C65.365 50.1156 66.0685 50.8192 66.9363 50.8192Z" fill="#FD5750"/>
<path d="M82.9363 51.9893C84.4504 51.9893 85.6779 50.7619 85.6779 49.2478C85.6779 47.7338 84.4504 46.5063 82.9363 46.5063C81.4223 46.5063 80.1948 47.7338 80.1948 49.2478C80.1948 50.7619 81.4223 51.9893 82.9363 51.9893Z" fill="#FD5750"/>
<path d="M98.9363 51.5115C100.186 51.5115 101.2 50.498 101.2 49.2478C101.2 47.9976 100.186 46.9841 98.9363 46.9841C97.6861 46.9841 96.6726 47.9976 96.6726 49.2478C96.6726 50.498 97.6861 51.5115 98.9363 51.5115Z" fill="#FD5750"/>
<path d="M114.936 51.2894C116.064 51.2894 116.978 50.3753 116.978 49.2477C116.978 48.1201 116.064 47.2061 114.936 47.2061C113.809 47.2061 112.895 48.1201 112.895 49.2477C112.895 50.3753 113.809 51.2894 114.936 51.2894Z" fill="#FD5750"/>
<path d="M130.936 51.4417C132.148 51.4417 133.13 50.4594 133.13 49.2477C133.13 48.036 132.148 47.0537 130.936 47.0537C129.724 47.0537 128.742 48.036 128.742 49.2477C128.742 50.4594 129.724 51.4417 130.936 51.4417Z" fill="#FD5750"/>
<path d="M146.936 51.0181C147.914 51.0181 148.707 50.2255 148.707 49.2477C148.707 48.2699 147.914 47.4773 146.936 47.4773C145.959 47.4773 145.166 48.2699 145.166 49.2477C145.166 50.2255 145.959 51.0181 146.936 51.0181Z" fill="#FD5750"/>
<path d="M162.936 52.1825C164.557 52.1825 165.871 50.8686 165.871 49.2479C165.871 47.6271 164.557 46.3132 162.936 46.3132C161.316 46.3132 160.002 47.6271 160.002 49.2479C160.002 50.8686 161.316 52.1825 162.936 52.1825Z" fill="#FD5750"/>
<path d="M178.936 50.8166C179.803 50.8166 180.505 50.1143 180.505 49.2479C180.505 48.3816 179.803 47.6792 178.936 47.6792C178.07 47.6792 177.368 48.3816 177.368 49.2479C177.368 50.1143 178.07 50.8166 178.936 50.8166Z" fill="#FD5750"/>
<path opacity="0.3" d="M194.936 51.4379C196.146 51.4379 197.126 50.4574 197.126 49.2478C197.126 48.0382 196.146 47.0576 194.936 47.0576C193.727 47.0576 192.746 48.0382 192.746 49.2478C192.746 50.4574 193.727 51.4379 194.936 51.4379Z" fill="#FD5750"/>
<path d="M210.936 51.089C211.953 51.089 212.777 50.2646 212.777 49.2477C212.777 48.2309 211.953 47.4065 210.936 47.4065C209.919 47.4065 209.095 48.2309 209.095 49.2477C209.095 50.2646 209.919 51.089 210.936 51.089Z" fill="#FD5750"/>
<path d="M226.936 51.9825C228.447 51.9825 229.671 50.7581 229.671 49.2477C229.671 47.7373 228.447 46.5129 226.936 46.5129C225.426 46.5129 224.202 47.7373 224.202 49.2477C224.202 50.7581 225.426 51.9825 226.936 51.9825Z" fill="#FD5750"/>
<path d="M242.936 50.9437C243.873 50.9437 244.632 50.1844 244.632 49.2478C244.632 48.3112 243.873 47.552 242.936 47.552C242 47.552 241.24 48.3112 241.24 49.2478C241.24 50.1844 242 50.9437 242.936 50.9437Z" fill="#FD5750"/>
<path opacity="0.3" d="M258.936 51.0369C259.924 51.0369 260.725 50.2359 260.725 49.2478C260.725 48.2597 259.924 47.4587 258.936 47.4587C257.948 47.4587 257.147 48.2597 257.147 49.2478C257.147 50.2359 257.948 51.0369 258.936 51.0369Z" fill="#FD5750"/>
<path opacity="0.3" d="M274.936 52.1989C276.566 52.1989 277.887 50.8777 277.887 49.2479C277.887 47.6181 276.566 46.2969 274.936 46.2969C273.307 46.2969 271.985 47.6181 271.985 49.2479C271.985 50.8777 273.307 52.1989 274.936 52.1989Z" fill="#FD5750"/>
<path opacity="0.3" d="M-1.06366 66.9442C-0.126797 66.9442 0.63269 66.1847 0.63269 65.2479C0.63269 64.311 -0.126797 63.5515 -1.06366 63.5515C-2.00052 63.5515 -2.76001 64.311 -2.76001 65.2479C-2.76001 66.1847 -2.00052 66.9442 -1.06366 66.9442Z" fill="#FD5750"/>
<path d="M14.9363 67.3267C16.0844 67.3267 17.0151 66.3959 17.0151 65.2478C17.0151 64.0997 16.0844 63.1689 14.9363 63.1689C13.7882 63.1689 12.8574 64.0997 12.8574 65.2478C12.8574 66.3959 13.7882 67.3267 14.9363 67.3267Z" fill="#FD5750"/>
<path opacity="0.3" d="M30.9362 68.1044C32.5139 68.1044 33.7928 66.8254 33.7928 65.2477C33.7928 63.6701 32.5139 62.3911 30.9362 62.3911C29.3586 62.3911 28.0796 63.6701 28.0796 65.2477C28.0796 66.8254 29.3586 68.1044 30.9362 68.1044Z" fill="#FD5750"/>
<path opacity="0.3" d="M46.9364 67.1793C48.0032 67.1793 48.868 66.3145 48.868 65.2477C48.868 64.1809 48.0032 63.3162 46.9364 63.3162C45.8696 63.3162 45.0049 64.1809 45.0049 65.2477C45.0049 66.3145 45.8696 67.1793 46.9364 67.1793Z" fill="#FD5750"/>
<path d="M62.9362 67.4152C64.1333 67.4152 65.1036 66.4448 65.1036 65.2478C65.1036 64.0507 64.1333 63.0803 62.9362 63.0803C61.7392 63.0803 60.7688 64.0507 60.7688 65.2478C60.7688 66.4448 61.7392 67.4152 62.9362 67.4152Z" fill="#FD5750"/>
<path d="M78.9363 67.6174C80.245 67.6174 81.3059 66.5565 81.3059 65.2478C81.3059 63.9391 80.245 62.8782 78.9363 62.8782C77.6276 62.8782 76.5667 63.9391 76.5667 65.2478C76.5667 66.5565 77.6276 67.6174 78.9363 67.6174Z" fill="#FD5750"/>
<path opacity="0.3" d="M94.9362 67.387C96.1177 67.387 97.0754 66.4292 97.0754 65.2477C97.0754 64.0662 96.1177 63.1084 94.9362 63.1084C93.7547 63.1084 92.7969 64.0662 92.7969 65.2477C92.7969 66.4292 93.7547 67.387 94.9362 67.387Z" fill="#FD5750"/>
<path opacity="0.3" d="M110.936 68.1492C112.539 68.1492 113.838 66.8502 113.838 65.2477C113.838 63.6452 112.539 62.3462 110.936 62.3462C109.334 62.3462 108.035 63.6452 108.035 65.2477C108.035 66.8502 109.334 68.1492 110.936 68.1492Z" fill="#FD5750"/>
<path d="M126.936 66.8076C127.798 66.8076 128.496 66.1093 128.496 65.2479C128.496 64.3865 127.798 63.6882 126.936 63.6882C126.075 63.6882 125.377 64.3865 125.377 65.2479C125.377 66.1093 126.075 66.8076 126.936 66.8076Z" fill="#FD5750"/>
<path opacity="0.3" d="M142.936 67.5176C144.19 67.5176 145.206 66.5014 145.206 65.2478C145.206 63.9943 144.19 62.978 142.936 62.978C141.683 62.978 140.667 63.9943 140.667 65.2478C140.667 66.5014 141.683 67.5176 142.936 67.5176Z" fill="#FD5750"/>
<path d="M158.936 67.5914C160.231 67.5914 161.28 66.5421 161.28 65.2477C161.28 63.9534 160.231 62.9041 158.936 62.9041C157.642 62.9041 156.593 63.9534 156.593 65.2477C156.593 66.5421 157.642 67.5914 158.936 67.5914Z" fill="#FD5750"/>
<path d="M174.936 67.823C176.359 67.823 177.511 66.67 177.511 65.2478C177.511 63.8256 176.359 62.6726 174.936 62.6726C173.514 62.6726 172.361 63.8256 172.361 65.2478C172.361 66.67 173.514 67.823 174.936 67.823Z" fill="#FD5750"/>
<path opacity="0.3" d="M190.936 67.914C192.409 67.914 193.602 66.7203 193.602 65.2478C193.602 63.7753 192.409 62.5815 190.936 62.5815C189.464 62.5815 188.27 63.7753 188.27 65.2478C188.27 66.7203 189.464 67.914 190.936 67.914Z" fill="#FD5750"/>
<path d="M206.936 67.2364C208.035 67.2364 208.925 66.346 208.925 65.2477C208.925 64.1494 208.035 63.259 206.936 63.259C205.838 63.259 204.948 64.1494 204.948 65.2477C204.948 66.346 205.838 67.2364 206.936 67.2364Z" fill="#FD5750"/>
<path opacity="0.3" d="M222.936 67.8603C224.379 67.8603 225.549 66.6907 225.549 65.2479C225.549 63.8051 224.379 62.6355 222.936 62.6355C221.493 62.6355 220.324 63.8051 220.324 65.2479C220.324 66.6907 221.493 67.8603 222.936 67.8603Z" fill="#FD5750"/>
<path opacity="0.3" d="M238.936 67.0267C239.919 67.0267 240.715 66.2303 240.715 65.2479C240.715 64.2654 239.919 63.469 238.936 63.469C237.954 63.469 237.157 64.2654 237.157 65.2479C237.157 66.2303 237.954 67.0267 238.936 67.0267Z" fill="#FD5750"/>
<path opacity="0.3" d="M254.936 68.0601C256.489 68.0601 257.749 66.801 257.749 65.2478C257.749 63.6947 256.489 62.4355 254.936 62.4355C253.383 62.4355 252.124 63.6947 252.124 65.2478C252.124 66.801 253.383 68.0601 254.936 68.0601Z" fill="#FD5750"/>
<path d="M270.936 67.0548C271.934 67.0548 272.743 66.2458 272.743 65.2479C272.743 64.2499 271.934 63.4409 270.936 63.4409C269.938 63.4409 269.129 64.2499 269.129 65.2479C269.129 66.2458 269.938 67.0548 270.936 67.0548Z" fill="#FD5750"/>
<path opacity="0.3" d="M286.936 67.3232C288.082 67.3232 289.011 66.394 289.011 65.2479C289.011 64.1017 288.082 63.1726 286.936 63.1726C285.79 63.1726 284.861 64.1017 284.861 65.2479C284.861 66.394 285.79 67.3232 286.936 67.3232Z" fill="#FD5750"/>
<path d="M10.9364 82.8039C11.7959 82.8039 12.4926 82.1072 12.4926 81.2477C12.4926 80.3882 11.7959 79.6914 10.9364 79.6914C10.0769 79.6914 9.38013 80.3882 9.38013 81.2477C9.38013 82.1072 10.0769 82.8039 10.9364 82.8039Z" fill="#FD5750"/>
<path d="M26.9362 84.1528C28.5406 84.1528 29.8412 82.8522 29.8412 81.2478C29.8412 79.6434 28.5406 78.3428 26.9362 78.3428C25.3319 78.3428 24.0312 79.6434 24.0312 81.2478C24.0312 82.8522 25.3319 84.1528 26.9362 84.1528Z" fill="#FD5750"/>
<path opacity="0.3" d="M42.9363 83.9839C44.4474 83.9839 45.6724 82.7589 45.6724 81.2478C45.6724 79.7367 44.4474 78.5117 42.9363 78.5117C41.4252 78.5117 40.2002 79.7367 40.2002 81.2478C40.2002 82.7589 41.4252 83.9839 42.9363 83.9839Z" fill="#FD5750"/>
<path opacity="0.3" d="M58.9364 83.3668C60.1067 83.3668 61.0555 82.418 61.0555 81.2477C61.0555 80.0774 60.1067 79.1287 58.9364 79.1287C57.7661 79.1287 56.8174 80.0774 56.8174 81.2477C56.8174 82.418 57.7661 83.3668 58.9364 83.3668Z" fill="#FD5750"/>
<path opacity="0.3" d="M74.9364 83.4587C76.1574 83.4587 77.1472 82.4689 77.1472 81.2479C77.1472 80.0269 76.1574 79.0371 74.9364 79.0371C73.7154 79.0371 72.7256 80.0269 72.7256 81.2479C72.7256 82.4689 73.7154 83.4587 74.9364 83.4587Z" fill="#FD5750"/>
<path opacity="0.3" d="M90.9362 82.861C91.8272 82.861 92.5495 82.1387 92.5495 81.2478C92.5495 80.3568 91.8272 79.6345 90.9362 79.6345C90.0452 79.6345 89.323 80.3568 89.323 81.2478C89.323 82.1387 90.0452 82.861 90.9362 82.861Z" fill="#FD5750"/>
<path d="M106.936 83.5543C108.21 83.5543 109.243 82.5216 109.243 81.2477C109.243 79.9738 108.21 78.9412 106.936 78.9412C105.662 78.9412 104.63 79.9738 104.63 81.2477C104.63 82.5216 105.662 83.5543 106.936 83.5543Z" fill="#FD5750"/>
<path opacity="0.3" d="M122.936 82.8758C123.835 82.8758 124.564 82.1469 124.564 81.2478C124.564 80.3487 123.835 79.6199 122.936 79.6199C122.037 79.6199 121.308 80.3487 121.308 81.2478C121.308 82.1469 122.037 82.8758 122.936 82.8758Z" fill="#FD5750"/>
<path d="M138.936 84.1193C140.522 84.1193 141.808 82.8337 141.808 81.2478C141.808 79.6619 140.522 78.3762 138.936 78.3762C137.35 78.3762 136.065 79.6619 136.065 81.2478C136.065 82.8337 137.35 84.1193 138.936 84.1193Z" fill="#FD5750"/>
<path d="M154.936 83.4527C156.154 83.4527 157.141 82.4655 157.141 81.2477C157.141 80.0299 156.154 79.0427 154.936 79.0427C153.719 79.0427 152.731 80.0299 152.731 81.2477C152.731 82.4655 153.719 83.4527 154.936 83.4527Z" fill="#FD5750"/>
<path d="M170.936 84.1308C172.529 84.1308 173.819 82.8401 173.819 81.2478C173.819 79.6555 172.529 78.3647 170.936 78.3647C169.344 78.3647 168.053 79.6555 168.053 81.2478C168.053 82.8401 169.344 84.1308 170.936 84.1308Z" fill="#FD5750"/>
<path d="M186.936 82.986C187.896 82.986 188.674 82.2077 188.674 81.2477C188.674 80.2877 187.896 79.5095 186.936 79.5095C185.976 79.5095 185.198 80.2877 185.198 81.2477C185.198 82.2077 185.976 82.986 186.936 82.986Z" fill="#FD5750"/>
<path opacity="0.3" d="M202.936 83.9089C204.406 83.9089 205.597 82.7174 205.597 81.2477C205.597 79.7779 204.406 78.5864 202.936 78.5864C201.466 78.5864 200.275 79.7779 200.275 81.2477C200.275 82.7174 201.466 83.9089 202.936 83.9089Z" fill="#FD5750"/>
<path d="M218.936 83.6683C220.273 83.6683 221.357 82.5846 221.357 81.2477C221.357 79.9109 220.273 78.8271 218.936 78.8271C217.599 78.8271 216.516 79.9109 216.516 81.2477C216.516 82.5846 217.599 83.6683 218.936 83.6683Z" fill="#FD5750"/>
<path opacity="0.3" d="M234.936 83.0322C235.922 83.0322 236.721 82.2333 236.721 81.2478C236.721 80.2623 235.922 79.4634 234.936 79.4634C233.951 79.4634 233.152 80.2623 233.152 81.2478C233.152 82.2333 233.951 83.0322 234.936 83.0322Z" fill="#FD5750"/>
<path d="M250.936 83.1589C251.992 83.1589 252.847 82.3033 252.847 81.2479C252.847 80.1925 251.992 79.3369 250.936 79.3369C249.881 79.3369 249.025 80.1925 249.025 81.2479C249.025 82.3033 249.881 83.1589 250.936 83.1589Z" fill="#FD5750"/>
<path opacity="0.3" d="M266.936 83.9794C268.445 83.9794 269.668 82.7564 269.668 81.2478C269.668 79.7391 268.445 78.5161 266.936 78.5161C265.428 78.5161 264.205 79.7391 264.205 81.2478C264.205 82.7564 265.428 83.9794 266.936 83.9794Z" fill="#FD5750"/>
<path d="M282.936 84.2398C284.589 84.2398 285.928 82.9002 285.928 81.2477C285.928 79.5952 284.589 78.2556 282.936 78.2556C281.284 78.2556 279.944 79.5952 279.944 81.2477C279.944 82.9002 281.284 84.2398 282.936 84.2398Z" fill="#FD5750"/>
<path d="M2.93643 100.227C4.58191 100.227 5.91583 98.8932 5.91583 97.2477C5.91583 95.6022 4.58191 94.2683 2.93643 94.2683C1.29095 94.2683 -0.0429688 95.6022 -0.0429688 97.2477C-0.0429688 98.8932 1.29095 100.227 2.93643 100.227Z" fill="#FD5750"/>
<path d="M18.9362 100.193C20.5628 100.193 21.8815 98.8744 21.8815 97.2477C21.8815 95.6211 20.5628 94.3025 18.9362 94.3025C17.3096 94.3025 15.991 95.6211 15.991 97.2477C15.991 98.8744 17.3096 100.193 18.9362 100.193Z" fill="#FD5750"/>
<path d="M34.9364 100.087C36.5043 100.087 37.7753 98.8158 37.7753 97.2479C37.7753 95.68 36.5043 94.4089 34.9364 94.4089C33.3685 94.4089 32.0974 95.68 32.0974 97.2479C32.0974 98.8158 33.3685 100.087 34.9364 100.087Z" fill="#FD5750"/>
<path d="M50.9362 99.7937C52.3423 99.7937 53.4822 98.6538 53.4822 97.2477C53.4822 95.8416 52.3423 94.7017 50.9362 94.7017C49.53 94.7017 48.3901 95.8416 48.3901 97.2477C48.3901 98.6538 49.53 99.7937 50.9362 99.7937Z" fill="#FD5750"/>
<path d="M66.9362 100.053C68.4855 100.053 69.7415 98.797 69.7415 97.2477C69.7415 95.6984 68.4855 94.4424 66.9362 94.4424C65.3868 94.4424 64.1309 95.6984 64.1309 97.2477C64.1309 98.797 65.3868 100.053 66.9362 100.053Z" fill="#FD5750"/>
<path d="M82.9362 99.9309C84.4181 99.9309 85.6194 98.7296 85.6194 97.2477C85.6194 95.7658 84.4181 94.5645 82.9362 94.5645C81.4543 94.5645 80.2529 95.7658 80.2529 97.2477C80.2529 98.7296 81.4543 99.9309 82.9362 99.9309Z" fill="#FD5750"/>
<path opacity="0.3" d="M98.9362 99.0076C99.9081 99.0076 100.696 98.2196 100.696 97.2477C100.696 96.2757 99.9081 95.4878 98.9362 95.4878C97.9642 95.4878 97.1763 96.2757 97.1763 97.2477C97.1763 98.2196 97.9642 99.0076 98.9362 99.0076Z" fill="#FD5750"/>
<path d="M114.936 99.7319C116.308 99.7319 117.42 98.6198 117.42 97.2478C117.42 95.8759 116.308 94.7637 114.936 94.7637C113.564 94.7637 112.452 95.8759 112.452 97.2478C112.452 98.6198 113.564 99.7319 114.936 99.7319Z" fill="#FD5750"/>
<path d="M130.936 100.235C132.586 100.235 133.924 98.8977 133.924 97.2479C133.924 95.5982 132.586 94.2607 130.936 94.2607C129.287 94.2607 127.949 95.5982 127.949 97.2479C127.949 98.8977 129.287 100.235 130.936 100.235Z" fill="#FD5750"/>
<path d="M146.936 98.7625C147.773 98.7625 148.451 98.0844 148.451 97.2478C148.451 96.4113 147.773 95.7332 146.936 95.7332C146.1 95.7332 145.422 96.4113 145.422 97.2478C145.422 98.0844 146.1 98.7625 146.936 98.7625Z" fill="#FD5750"/>
<path d="M162.936 100.149C164.538 100.149 165.837 98.8501 165.837 97.2479C165.837 95.6457 164.538 94.3469 162.936 94.3469C161.334 94.3469 160.035 95.6457 160.035 97.2479C160.035 98.8501 161.334 100.149 162.936 100.149Z" fill="#FD5750"/>
<path d="M178.936 99.1207C179.971 99.1207 180.809 98.2822 180.809 97.2479C180.809 96.2135 179.971 95.375 178.936 95.375C177.902 95.375 177.063 96.2135 177.063 97.2479C177.063 98.2822 177.902 99.1207 178.936 99.1207Z" fill="#FD5750"/>
<path opacity="0.3" d="M194.936 99.6514C196.264 99.6514 197.34 98.5753 197.34 97.2478C197.34 95.9204 196.264 94.8442 194.936 94.8442C193.609 94.8442 192.533 95.9204 192.533 97.2478C192.533 98.5753 193.609 99.6514 194.936 99.6514Z" fill="#FD5750"/>
<path d="M210.936 98.8535C211.823 98.8535 212.542 98.1346 212.542 97.2478C212.542 96.361 211.823 95.6421 210.936 95.6421C210.049 95.6421 209.331 96.361 209.331 97.2478C209.331 98.1346 210.049 98.8535 210.936 98.8535Z" fill="#FD5750"/>
<path d="M226.936 100.106C228.515 100.106 229.795 98.8266 229.795 97.2477C229.795 95.6689 228.515 94.3889 226.936 94.3889C225.358 94.3889 224.078 95.6689 224.078 97.2477C224.078 98.8266 225.358 100.106 226.936 100.106Z" fill="#FD5750"/>
<path opacity="0.3" d="M242.936 98.7797C243.782 98.7797 244.468 98.0938 244.468 97.2478C244.468 96.4017 243.782 95.7158 242.936 95.7158C242.09 95.7158 241.404 96.4017 241.404 97.2478C241.404 98.0938 242.09 98.7797 242.936 98.7797Z" fill="#FD5750"/>
<path opacity="0.3" d="M258.936 99.7957C260.343 99.7957 261.484 98.655 261.484 97.2479C261.484 95.8409 260.343 94.7002 258.936 94.7002C257.529 94.7002 256.389 95.8409 256.389 97.2479C256.389 98.655 257.529 99.7957 258.936 99.7957Z" fill="#FD5750"/>
<path opacity="0.3" d="M274.936 99.5068C276.184 99.5068 277.195 98.4954 277.195 97.2478C277.195 96.0002 276.184 94.9888 274.936 94.9888C273.689 94.9888 272.677 96.0002 272.677 97.2478C272.677 98.4954 273.689 99.5068 274.936 99.5068Z" fill="#FD5750"/>
<path opacity="0.3" d="M-1.0636 115.787C0.339017 115.787 1.47607 114.65 1.47607 113.248C1.47607 111.845 0.339017 110.708 -1.0636 110.708C-2.46621 110.708 -3.60327 111.845 -3.60327 113.248C-3.60327 114.65 -2.46621 115.787 -1.0636 115.787Z" fill="#FD5750"/>
<path opacity="0.3" d="M14.9364 115.614C16.2432 115.614 17.3026 114.554 17.3026 113.248C17.3026 111.941 16.2432 110.882 14.9364 110.882C13.6297 110.882 12.5703 111.941 12.5703 113.248C12.5703 114.554 13.6297 115.614 14.9364 115.614Z" fill="#FD5750"/>
<path d="M30.9363 115.49C32.1745 115.49 33.1783 114.486 33.1783 113.248C33.1783 112.01 32.1745 111.006 30.9363 111.006C29.6981 111.006 28.6943 112.01 28.6943 113.248C28.6943 114.486 29.6981 115.49 30.9363 115.49Z" fill="#FD5750"/>
<path opacity="0.3" d="M46.9363 115.56C48.2131 115.56 49.2482 114.525 49.2482 113.248C49.2482 111.971 48.2131 110.936 46.9363 110.936C45.6596 110.936 44.6245 111.971 44.6245 113.248C44.6245 114.525 45.6596 115.56 46.9363 115.56Z" fill="#FD5750"/>
<path opacity="0.3" d="M62.9364 115.393C64.1213 115.393 65.0818 114.433 65.0818 113.248C65.0818 112.063 64.1213 111.103 62.9364 111.103C61.7515 111.103 60.791 112.063 60.791 113.248C60.791 114.433 61.7515 115.393 62.9364 115.393Z" fill="#FD5750"/>
<path d="M78.9363 114.883C79.8396 114.883 80.5719 114.151 80.5719 113.248C80.5719 112.345 79.8396 111.612 78.9363 111.612C78.0331 111.612 77.3008 112.345 77.3008 113.248C77.3008 114.151 78.0331 114.883 78.9363 114.883Z" fill="#FD5750"/>
<path d="M94.9364 115.127C95.974 115.127 96.8152 114.285 96.8152 113.248C96.8152 112.21 95.974 111.369 94.9364 111.369C93.8988 111.369 93.0576 112.21 93.0576 113.248C93.0576 114.285 93.8988 115.127 94.9364 115.127Z" fill="#FD5750"/>
<path d="M110.936 115.316C112.078 115.316 113.004 114.39 113.004 113.248C113.004 112.106 112.078 111.18 110.936 111.18C109.794 111.18 108.868 112.106 108.868 113.248C108.868 114.39 109.794 115.316 110.936 115.316Z" fill="#FD5750"/>
<path opacity="0.3" d="M126.936 114.969C127.887 114.969 128.658 114.199 128.658 113.248C128.658 112.297 127.887 111.526 126.936 111.526C125.986 111.526 125.215 112.297 125.215 113.248C125.215 114.199 125.986 114.969 126.936 114.969Z" fill="#FD5750"/>
<path opacity="0.3" d="M142.936 115.359C144.102 115.359 145.047 114.414 145.047 113.248C145.047 112.082 144.102 111.137 142.936 111.137C141.771 111.137 140.825 112.082 140.825 113.248C140.825 114.414 141.771 115.359 142.936 115.359Z" fill="#FD5750"/>
<path opacity="0.3" d="M158.936 115.303C160.072 115.303 160.992 114.383 160.992 113.248C160.992 112.113 160.072 111.192 158.936 111.192C157.801 111.192 156.881 112.113 156.881 113.248C156.881 114.383 157.801 115.303 158.936 115.303Z" fill="#FD5750"/>
<path opacity="0.3" d="M174.936 115.498C176.179 115.498 177.186 114.491 177.186 113.248C177.186 112.005 176.179 110.998 174.936 110.998C173.693 110.998 172.686 112.005 172.686 113.248C172.686 114.491 173.693 115.498 174.936 115.498Z" fill="#FD5750"/>
<path opacity="0.3" d="M190.936 115.735C192.31 115.735 193.424 114.622 193.424 113.248C193.424 111.874 192.31 110.76 190.936 110.76C189.563 110.76 188.449 111.874 188.449 113.248C188.449 114.622 189.563 115.735 190.936 115.735Z" fill="#FD5750"/>
<path opacity="0.3" d="M206.936 115.352C208.099 115.352 209.041 114.41 209.041 113.248C209.041 112.086 208.099 111.143 206.936 111.143C205.774 111.143 204.832 112.086 204.832 113.248C204.832 114.41 205.774 115.352 206.936 115.352Z" fill="#FD5750"/>
<path d="M222.936 115.788C224.339 115.788 225.476 114.65 225.476 113.248C225.476 111.845 224.339 110.708 222.936 110.708C221.534 110.708 220.396 111.845 220.396 113.248C220.396 114.65 221.534 115.788 222.936 115.788Z" fill="#FD5750"/>
<path d="M238.936 115.75C240.318 115.75 241.438 114.629 241.438 113.248C241.438 111.866 240.318 110.746 238.936 110.746C237.555 110.746 236.435 111.866 236.435 113.248C236.435 114.629 237.555 115.75 238.936 115.75Z" fill="#FD5750"/>
<path d="M254.936 115.153C255.989 115.153 256.842 114.3 256.842 113.248C256.842 112.196 255.989 111.343 254.936 111.343C253.884 111.343 253.031 112.196 253.031 113.248C253.031 114.3 253.884 115.153 254.936 115.153Z" fill="#FD5750"/>
<path opacity="0.3" d="M270.936 114.95C271.877 114.95 272.639 114.188 272.639 113.248C272.639 112.307 271.877 111.545 270.936 111.545C269.996 111.545 269.234 112.307 269.234 113.248C269.234 114.188 269.996 114.95 270.936 114.95Z" fill="#FD5750"/>
<path d="M286.936 115.536C288.2 115.536 289.224 114.511 289.224 113.248C289.224 111.984 288.2 110.96 286.936 110.96C285.673 110.96 284.648 111.984 284.648 113.248C284.648 114.511 285.673 115.536 286.936 115.536Z" fill="#FD5750"/>
<path opacity="0.3" d="M10.9363 131.161C11.9929 131.161 12.8494 130.304 12.8494 129.248C12.8494 128.191 11.9929 127.335 10.9363 127.335C9.8797 127.335 9.02319 128.191 9.02319 129.248C9.02319 130.304 9.8797 131.161 10.9363 131.161Z" fill="#FD5750"/>
<path d="M26.9364 132.187C28.5595 132.187 29.8752 130.871 29.8752 129.248C29.8752 127.625 28.5595 126.309 26.9364 126.309C25.3133 126.309 23.9976 127.625 23.9976 129.248C23.9976 130.871 25.3133 132.187 26.9364 132.187Z" fill="#FD5750"/>
<path d="M42.9362 131.967C44.4378 131.967 45.6552 130.749 45.6552 129.248C45.6552 127.746 44.4378 126.529 42.9362 126.529C41.4346 126.529 40.2173 127.746 40.2173 129.248C40.2173 130.749 41.4346 131.967 42.9362 131.967Z" fill="#FD5750"/>
<path d="M58.9363 132.237C60.5872 132.237 61.9254 130.899 61.9254 129.248C61.9254 127.597 60.5872 126.259 58.9363 126.259C57.2855 126.259 55.9473 127.597 55.9473 129.248C55.9473 130.899 57.2855 132.237 58.9363 132.237Z" fill="#FD5750"/>
<path opacity="0.3" d="M74.9362 131.212C76.0211 131.212 76.9006 130.333 76.9006 129.248C76.9006 128.163 76.0211 127.283 74.9362 127.283C73.8512 127.283 72.9717 128.163 72.9717 129.248C72.9717 130.333 73.8512 131.212 74.9362 131.212Z" fill="#FD5750"/>
<path opacity="0.3" d="M90.9363 131.608C92.24 131.608 93.2968 130.552 93.2968 129.248C93.2968 127.944 92.24 126.887 90.9363 126.887C89.6327 126.887 88.5759 127.944 88.5759 129.248C88.5759 130.552 89.6327 131.608 90.9363 131.608Z" fill="#FD5750"/>
<path opacity="0.3" d="M106.936 132.17C108.55 132.17 109.858 130.862 109.858 129.248C109.858 127.634 108.55 126.326 106.936 126.326C105.322 126.326 104.014 127.634 104.014 129.248C104.014 130.862 105.322 132.17 106.936 132.17Z" fill="#FD5750"/>
<path opacity="0.3" d="M122.936 131.859C124.378 131.859 125.547 130.69 125.547 129.248C125.547 127.806 124.378 126.637 122.936 126.637C121.494 126.637 120.325 127.806 120.325 129.248C120.325 130.69 121.494 131.859 122.936 131.859Z" fill="#FD5750"/>
<path d="M138.936 131.03C139.92 131.03 140.718 130.232 140.718 129.248C140.718 128.264 139.92 127.466 138.936 127.466C137.952 127.466 137.154 128.264 137.154 129.248C137.154 130.232 137.952 131.03 138.936 131.03Z" fill="#FD5750"/>
<path opacity="0.3" d="M154.936 131.582C156.226 131.582 157.271 130.537 157.271 129.248C157.271 127.959 156.226 126.914 154.936 126.914C153.647 126.914 152.602 127.959 152.602 129.248C152.602 130.537 153.647 131.582 154.936 131.582Z" fill="#FD5750"/>
<path d="M170.936 132.052C172.485 132.052 173.74 130.796 173.74 129.248C173.74 127.699 172.485 126.444 170.936 126.444C169.388 126.444 168.133 127.699 168.133 129.248C168.133 130.796 169.388 132.052 170.936 132.052Z" fill="#FD5750"/>
<path opacity="0.3" d="M186.936 131.901C188.401 131.901 189.589 130.713 189.589 129.248C189.589 127.782 188.401 126.595 186.936 126.595C185.471 126.595 184.283 127.782 184.283 129.248C184.283 130.713 185.471 131.901 186.936 131.901Z" fill="#FD5750"/>
<path d="M202.936 131.746C204.316 131.746 205.435 130.628 205.435 129.248C205.435 127.868 204.316 126.75 202.936 126.75C201.557 126.75 200.438 127.868 200.438 129.248C200.438 130.628 201.557 131.746 202.936 131.746Z" fill="#FD5750"/>
<path d="M218.936 131.756C220.322 131.756 221.445 130.633 221.445 129.248C221.445 127.862 220.322 126.739 218.936 126.739C217.551 126.739 216.428 127.862 216.428 129.248C216.428 130.633 217.551 131.756 218.936 131.756Z" fill="#FD5750"/>
<path opacity="0.3" d="M234.936 131.439C236.146 131.439 237.127 130.458 237.127 129.248C237.127 128.038 236.146 127.057 234.936 127.057C233.726 127.057 232.745 128.038 232.745 129.248C232.745 130.458 233.726 131.439 234.936 131.439Z" fill="#FD5750"/>
<path opacity="0.3" d="M250.936 131.051C251.932 131.051 252.739 130.244 252.739 129.248C252.739 128.252 251.932 127.445 250.936 127.445C249.941 127.445 249.133 128.252 249.133 129.248C249.133 130.244 249.941 131.051 250.936 131.051Z" fill="#FD5750"/>
<path opacity="0.3" d="M266.936 131.61C268.241 131.61 269.299 130.553 269.299 129.248C269.299 127.943 268.241 126.885 266.936 126.885C265.632 126.885 264.574 127.943 264.574 129.248C264.574 130.553 265.632 131.61 266.936 131.61Z" fill="#FD5750"/>
<path opacity="0.3" d="M282.936 131.196C284.012 131.196 284.885 130.324 284.885 129.248C284.885 128.172 284.012 127.299 282.936 127.299C281.86 127.299 280.988 128.172 280.988 129.248C280.988 130.324 281.86 131.196 282.936 131.196Z" fill="#FD5750"/>
<path opacity="0.3" d="M2.93625 147.831C4.36319 147.831 5.51996 146.675 5.51996 145.248C5.51996 143.821 4.36319 142.664 2.93625 142.664C1.50931 142.664 0.352539 143.821 0.352539 145.248C0.352539 146.675 1.50931 147.831 2.93625 147.831Z" fill="#FD5750"/>
<path d="M18.9363 146.814C19.8015 146.814 20.5029 146.113 20.5029 145.248C20.5029 144.383 19.8015 143.681 18.9363 143.681C18.071 143.681 17.3696 144.383 17.3696 145.248C17.3696 146.113 18.071 146.814 18.9363 146.814Z" fill="#FD5750"/>
<path d="M34.9363 147.928C36.4165 147.928 37.6165 146.728 37.6165 145.248C37.6165 143.768 36.4165 142.568 34.9363 142.568C33.4561 142.568 32.2561 143.768 32.2561 145.248C32.2561 146.728 33.4561 147.928 34.9363 147.928Z" fill="#FD5750"/>
<path d="M50.9363 147.646C52.2609 147.646 53.3347 146.572 53.3347 145.248C53.3347 143.923 52.2609 142.849 50.9363 142.849C49.6117 142.849 48.5378 143.923 48.5378 145.248C48.5378 146.572 49.6117 147.646 50.9363 147.646Z" fill="#FD5750"/>
<path opacity="0.3" d="M66.9363 147.351C68.0977 147.351 69.0392 146.409 69.0392 145.248C69.0392 144.086 68.0977 143.145 66.9363 143.145C65.775 143.145 64.8335 144.086 64.8335 145.248C64.8335 146.409 65.775 147.351 66.9363 147.351Z" fill="#FD5750"/>
<path opacity="0.3" d="M82.9363 148.2C84.5665 148.2 85.8881 146.878 85.8881 145.248C85.8881 143.618 84.5665 142.296 82.9363 142.296C81.3062 142.296 79.9846 143.618 79.9846 145.248C79.9846 146.878 81.3062 148.2 82.9363 148.2Z" fill="#FD5750"/>
<path opacity="0.3" d="M98.9362 147.086C99.9512 147.086 100.774 146.263 100.774 145.248C100.774 144.233 99.9512 143.41 98.9362 143.41C97.9212 143.41 97.0984 144.233 97.0984 145.248C97.0984 146.263 97.9212 147.086 98.9362 147.086Z" fill="#FD5750"/>
<path opacity="0.3" d="M114.936 148.133C116.53 148.133 117.822 146.841 117.822 145.248C117.822 143.654 116.53 142.362 114.936 142.362C113.343 142.362 112.051 143.654 112.051 145.248C112.051 146.841 113.343 148.133 114.936 148.133Z" fill="#FD5750"/>
<path opacity="0.3" d="M130.936 147.65C132.263 147.65 133.338 146.574 133.338 145.248C133.338 143.921 132.263 142.846 130.936 142.846C129.61 142.846 128.534 143.921 128.534 145.248C128.534 146.574 129.61 147.65 130.936 147.65Z" fill="#FD5750"/>
<path d="M146.936 147.431C148.142 147.431 149.12 146.454 149.12 145.248C149.12 144.042 148.142 143.064 146.936 143.064C145.73 143.064 144.753 144.042 144.753 145.248C144.753 146.454 145.73 147.431 146.936 147.431Z" fill="#FD5750"/>
<path d="M162.936 147.908C164.405 147.908 165.596 146.717 165.596 145.248C165.596 143.779 164.405 142.588 162.936 142.588C161.467 142.588 160.276 143.779 160.276 145.248C160.276 146.717 161.467 147.908 162.936 147.908Z" fill="#FD5750"/>
<path opacity="0.3" d="M178.936 148.052C180.485 148.052 181.741 146.797 181.741 145.248C181.741 143.699 180.485 142.443 178.936 142.443C177.387 142.443 176.132 143.699 176.132 145.248C176.132 146.797 177.387 148.052 178.936 148.052Z" fill="#FD5750"/>
<path opacity="0.3" d="M194.936 147.914C196.409 147.914 197.602 146.72 197.602 145.248C197.602 143.775 196.409 142.582 194.936 142.582C193.464 142.582 192.27 143.775 192.27 145.248C192.27 146.72 193.464 147.914 194.936 147.914Z" fill="#FD5750"/>
<path d="M210.936 147.041C211.927 147.041 212.729 146.238 212.729 145.248C212.729 144.258 211.927 143.455 210.936 143.455C209.946 143.455 209.143 144.258 209.143 145.248C209.143 146.238 209.946 147.041 210.936 147.041Z" fill="#FD5750"/>
<path opacity="0.3" d="M226.936 147.618C228.245 147.618 229.307 146.557 229.307 145.248C229.307 143.939 228.245 142.877 226.936 142.877C225.627 142.877 224.566 143.939 224.566 145.248C224.566 146.557 225.627 147.618 226.936 147.618Z" fill="#FD5750"/>
<path opacity="0.3" d="M242.936 147.881C244.391 147.881 245.57 146.702 245.57 145.248C245.57 143.793 244.391 142.614 242.936 142.614C241.482 142.614 240.302 143.793 240.302 145.248C240.302 146.702 241.482 147.881 242.936 147.881Z" fill="#FD5750"/>
<path d="M258.936 148.014C260.464 148.014 261.702 146.775 261.702 145.248C261.702 143.72 260.464 142.482 258.936 142.482C257.409 142.482 256.17 143.72 256.17 145.248C256.17 146.775 257.409 148.014 258.936 148.014Z" fill="#FD5750"/>
<path opacity="0.3" d="M274.936 146.893C275.845 146.893 276.581 146.156 276.581 145.248C276.581 144.339 275.845 143.603 274.936 143.603C274.028 143.603 273.291 144.339 273.291 145.248C273.291 146.156 274.028 146.893 274.936 146.893Z" fill="#FD5750"/>
<path d="M-1.06366 163.792C0.341358 163.792 1.48035 162.653 1.48035 161.248C1.48035 159.843 0.341358 158.704 -1.06366 158.704C-2.46868 158.704 -3.60767 159.843 -3.60767 161.248C-3.60767 162.653 -2.46868 163.792 -1.06366 163.792Z" fill="#FD5750"/>
<path d="M14.9363 162.817C15.803 162.817 16.5056 162.115 16.5056 161.248C16.5056 160.381 15.803 159.678 14.9363 159.678C14.0696 159.678 13.3669 160.381 13.3669 161.248C13.3669 162.115 14.0696 162.817 14.9363 162.817Z" fill="#FD5750"/>
<path d="M30.9362 163.051C31.9321 163.051 32.7394 162.244 32.7394 161.248C32.7394 160.252 31.9321 159.445 30.9362 159.445C29.9404 159.445 29.1331 160.252 29.1331 161.248C29.1331 162.244 29.9404 163.051 30.9362 163.051Z" fill="#FD5750"/>
<path d="M46.9364 163.615C48.244 163.615 49.304 162.555 49.304 161.248C49.304 159.94 48.244 158.88 46.9364 158.88C45.6289 158.88 44.5688 159.94 44.5688 161.248C44.5688 162.555 45.6289 163.615 46.9364 163.615Z" fill="#FD5750"/>
<path opacity="0.3" d="M62.9363 163.897C64.3995 163.897 65.5856 162.711 65.5856 161.248C65.5856 159.785 64.3995 158.599 62.9363 158.599C61.4732 158.599 60.2871 159.785 60.2871 161.248C60.2871 162.711 61.4732 163.897 62.9363 163.897Z" fill="#FD5750"/>
<path opacity="0.3" d="M78.9363 163.473C80.165 163.473 81.1611 162.477 81.1611 161.248C81.1611 160.019 80.165 159.023 78.9363 159.023C77.7075 159.023 76.7114 160.019 76.7114 161.248C76.7114 162.477 77.7075 163.473 78.9363 163.473Z" fill="#FD5750"/>
<path opacity="0.3" d="M94.9363 163.465C96.1607 163.465 97.1532 162.472 97.1532 161.248C97.1532 160.024 96.1607 159.031 94.9363 159.031C93.712 159.031 92.7195 160.024 92.7195 161.248C92.7195 162.472 93.712 163.465 94.9363 163.465Z" fill="#FD5750"/>
<path opacity="0.3" d="M110.936 164.107C112.515 164.107 113.795 162.827 113.795 161.248C113.795 159.669 112.515 158.389 110.936 158.389C109.357 158.389 108.077 159.669 108.077 161.248C108.077 162.827 109.357 164.107 110.936 164.107Z" fill="#FD5750"/>
<path opacity="0.3" d="M126.936 163.625C128.249 163.625 129.313 162.561 129.313 161.248C129.313 159.935 128.249 158.871 126.936 158.871C125.624 158.871 124.559 159.935 124.559 161.248C124.559 162.561 125.624 163.625 126.936 163.625Z" fill="#FD5750"/>
<path opacity="0.3" d="M142.936 163.079C143.947 163.079 144.767 162.259 144.767 161.248C144.767 160.236 143.947 159.417 142.936 159.417C141.925 159.417 141.105 160.236 141.105 161.248C141.105 162.259 141.925 163.079 142.936 163.079Z" fill="#FD5750"/>
<path d="M158.936 163.548C160.207 163.548 161.237 162.518 161.237 161.248C161.237 159.977 160.207 158.947 158.936 158.947C157.666 158.947 156.635 159.977 156.635 161.248C156.635 162.518 157.666 163.548 158.936 163.548Z" fill="#FD5750"/>
<path d="M174.936 163.811C176.352 163.811 177.499 162.663 177.499 161.248C177.499 159.832 176.352 158.685 174.936 158.685C173.521 158.685 172.373 159.832 172.373 161.248C172.373 162.663 173.521 163.811 174.936 163.811Z" fill="#FD5750"/>
<path opacity="0.3" d="M190.936 163.743C192.314 163.743 193.431 162.626 193.431 161.248C193.431 159.87 192.314 158.752 190.936 158.752C189.558 158.752 188.441 159.87 188.441 161.248C188.441 162.626 189.558 163.743 190.936 163.743Z" fill="#FD5750"/>
<path opacity="0.3" d="M206.936 163.596C208.233 163.596 209.285 162.545 209.285 161.248C209.285 159.951 208.233 158.899 206.936 158.899C205.639 158.899 204.588 159.951 204.588 161.248C204.588 162.545 205.639 163.596 206.936 163.596Z" fill="#FD5750"/>
<path opacity="0.3" d="M222.936 163.911C224.407 163.911 225.599 162.718 225.599 161.248C225.599 159.777 224.407 158.585 222.936 158.585C221.466 158.585 220.273 159.777 220.273 161.248C220.273 162.718 221.466 163.911 222.936 163.911Z" fill="#FD5750"/>
<path d="M238.936 163.278C240.057 163.278 240.966 162.369 240.966 161.248C240.966 160.127 240.057 159.218 238.936 159.218C237.815 159.218 236.906 160.127 236.906 161.248C236.906 162.369 237.815 163.278 238.936 163.278Z" fill="#FD5750"/>
<path d="M254.936 163.678C256.279 163.678 257.367 162.59 257.367 161.248C257.367 159.905 256.279 158.817 254.936 158.817C253.594 158.817 252.506 159.905 252.506 161.248C252.506 162.59 253.594 163.678 254.936 163.678Z" fill="#FD5750"/>
<path d="M270.936 163.023C271.917 163.023 272.712 162.228 272.712 161.248C272.712 160.267 271.917 159.472 270.936 159.472C269.956 159.472 269.161 160.267 269.161 161.248C269.161 162.228 269.956 163.023 270.936 163.023Z" fill="#FD5750"/>
<path opacity="0.3" d="M286.936 163.013C287.911 163.013 288.701 162.223 288.701 161.248C288.701 160.273 287.911 159.482 286.936 159.482C285.961 159.482 285.171 160.273 285.171 161.248C285.171 162.223 285.961 163.013 286.936 163.013Z" fill="#FD5750"/>
<path opacity="0.3" d="M10.9363 179.693C12.2866 179.693 13.3813 178.598 13.3813 177.248C13.3813 175.898 12.2866 174.803 10.9363 174.803C9.58606 174.803 8.49146 175.898 8.49146 177.248C8.49146 178.598 9.58606 179.693 10.9363 179.693Z" fill="#FD5750"/>
<path d="M26.9364 179.737C28.3113 179.737 29.426 178.623 29.426 177.248C29.426 175.873 28.3113 174.758 26.9364 174.758C25.5614 174.758 24.4468 175.873 24.4468 177.248C24.4468 178.623 25.5614 179.737 26.9364 179.737Z" fill="#FD5750"/>
<path opacity="0.3" d="M42.9363 178.929C43.8647 178.929 44.6173 178.176 44.6173 177.248C44.6173 176.319 43.8647 175.567 42.9363 175.567C42.008 175.567 41.2554 176.319 41.2554 177.248C41.2554 178.176 42.008 178.929 42.9363 178.929Z" fill="#FD5750"/>
<path d="M58.9363 179.36C60.1031 179.36 61.049 178.415 61.049 177.248C61.049 176.081 60.1031 175.135 58.9363 175.135C57.7696 175.135 56.8237 176.081 56.8237 177.248C56.8237 178.415 57.7696 179.36 58.9363 179.36Z" fill="#FD5750"/>
<path d="M74.9362 179.606C76.2387 179.606 77.2947 178.55 77.2947 177.248C77.2947 175.945 76.2387 174.889 74.9362 174.889C73.6336 174.889 72.5776 175.945 72.5776 177.248C72.5776 178.55 73.6336 179.606 74.9362 179.606Z" fill="#FD5750"/>
<path d="M90.9363 180.146C92.5367 180.146 93.834 178.848 93.834 177.248C93.834 175.647 92.5367 174.35 90.9363 174.35C89.3359 174.35 88.0386 175.647 88.0386 177.248C88.0386 178.848 89.3359 180.146 90.9363 180.146Z" fill="#FD5750"/>
<path opacity="0.3" d="M106.936 180.216C108.575 180.216 109.904 178.887 109.904 177.248C109.904 175.609 108.575 174.28 106.936 174.28C105.297 174.28 103.969 175.609 103.969 177.248C103.969 178.887 105.297 180.216 106.936 180.216Z" fill="#FD5750"/>
<path d="M122.936 179.238C124.036 179.238 124.927 178.347 124.927 177.248C124.927 176.148 124.036 175.257 122.936 175.257C121.837 175.257 120.946 176.148 120.946 177.248C120.946 178.347 121.837 179.238 122.936 179.238Z" fill="#FD5750"/>
<path d="M138.936 179.2C140.015 179.2 140.889 178.326 140.889 177.248C140.889 176.17 140.015 175.296 138.936 175.296C137.858 175.296 136.984 176.17 136.984 177.248C136.984 178.326 137.858 179.2 138.936 179.2Z" fill="#FD5750"/>
<path opacity="0.3" d="M154.936 179.442C156.148 179.442 157.131 178.46 157.131 177.248C157.131 176.036 156.148 175.053 154.936 175.053C153.724 175.053 152.742 176.036 152.742 177.248C152.742 178.46 153.724 179.442 154.936 179.442Z" fill="#FD5750"/>
<path opacity="0.3" d="M170.936 180.092C172.507 180.092 173.78 178.819 173.78 177.248C173.78 175.677 172.507 174.404 170.936 174.404C169.366 174.404 168.092 175.677 168.092 177.248C168.092 178.819 169.366 180.092 170.936 180.092Z" fill="#FD5750"/>
<path opacity="0.3" d="M186.936 178.768C187.776 178.768 188.456 178.087 188.456 177.248C188.456 176.408 187.776 175.728 186.936 175.728C186.097 175.728 185.416 176.408 185.416 177.248C185.416 178.087 186.097 178.768 186.936 178.768Z" fill="#FD5750"/>
<path opacity="0.3" d="M202.936 178.828C203.809 178.828 204.516 178.121 204.516 177.248C204.516 176.375 203.809 175.667 202.936 175.667C202.063 175.667 201.356 176.375 201.356 177.248C201.356 178.121 202.063 178.828 202.936 178.828Z" fill="#FD5750"/>
<path d="M218.936 178.954C219.878 178.954 220.642 178.19 220.642 177.248C220.642 176.306 219.878 175.542 218.936 175.542C217.994 175.542 217.23 176.306 217.23 177.248C217.23 178.19 217.994 178.954 218.936 178.954Z" fill="#FD5750"/>
<path d="M234.936 179.143C235.983 179.143 236.831 178.294 236.831 177.248C236.831 176.201 235.983 175.353 234.936 175.353C233.89 175.353 233.041 176.201 233.041 177.248C233.041 178.294 233.89 179.143 234.936 179.143Z" fill="#FD5750"/>
<path d="M250.936 179.656C252.266 179.656 253.345 178.578 253.345 177.248C253.345 175.918 252.266 174.84 250.936 174.84C249.606 174.84 248.528 175.918 248.528 177.248C248.528 178.578 249.606 179.656 250.936 179.656Z" fill="#FD5750"/>
<path opacity="0.3" d="M266.936 178.83C267.81 178.83 268.519 178.122 268.519 177.248C268.519 176.374 267.81 175.665 266.936 175.665C266.062 175.665 265.354 176.374 265.354 177.248C265.354 178.122 266.062 178.83 266.936 178.83Z" fill="#FD5750"/>
<path d="M282.936 179.802C284.347 179.802 285.49 178.658 285.49 177.248C285.49 175.837 284.347 174.694 282.936 174.694C281.526 174.694 280.382 175.837 280.382 177.248C280.382 178.658 281.526 179.802 282.936 179.802Z" fill="#FD5750"/>
<path opacity="0.3" d="M2.93622 195.643C4.25932 195.643 5.33191 194.571 5.33191 193.248C5.33191 191.925 4.25932 190.852 2.93622 190.852C1.61312 190.852 0.540527 191.925 0.540527 193.248C0.540527 194.571 1.61312 195.643 2.93622 195.643Z" fill="#FD5750"/>
<path opacity="0.3" d="M18.9364 195.186C20.0067 195.186 20.8743 194.318 20.8743 193.248C20.8743 192.178 20.0067 191.31 18.9364 191.31C17.8662 191.31 16.9985 192.178 16.9985 193.248C16.9985 194.318 17.8662 195.186 18.9364 195.186Z" fill="#FD5750"/>
<path d="M34.9363 195.316C36.0783 195.316 37.004 194.39 37.004 193.248C37.004 192.106 36.0783 191.18 34.9363 191.18C33.7944 191.18 32.8687 192.106 32.8687 193.248C32.8687 194.39 33.7944 195.316 34.9363 195.316Z" fill="#FD5750"/>
<path opacity="0.3" d="M50.9364 195.384C52.1161 195.384 53.0725 194.428 53.0725 193.248C53.0725 192.068 52.1161 191.112 50.9364 191.112C49.7567 191.112 48.8003 192.068 48.8003 193.248C48.8003 194.428 49.7567 195.384 50.9364 195.384Z" fill="#FD5750"/>
<path d="M66.9363 195.547C68.206 195.547 69.2354 194.518 69.2354 193.248C69.2354 191.978 68.206 190.949 66.9363 190.949C65.6665 190.949 64.6372 191.978 64.6372 193.248C64.6372 194.518 65.6665 195.547 66.9363 195.547Z" fill="#FD5750"/>
<path opacity="0.3" d="M82.9362 195.448C84.1511 195.448 85.136 194.463 85.136 193.248C85.136 192.033 84.1511 191.048 82.9362 191.048C81.7212 191.048 80.7363 192.033 80.7363 193.248C80.7363 194.463 81.7212 195.448 82.9362 195.448Z" fill="#FD5750"/>
<path d="M98.9363 195.29C100.064 195.29 100.978 194.376 100.978 193.248C100.978 192.12 100.064 191.206 98.9363 191.206C97.8085 191.206 96.8943 192.12 96.8943 193.248C96.8943 194.376 97.8085 195.29 98.9363 195.29Z" fill="#FD5750"/>
<path d="M114.936 195.056C115.935 195.056 116.744 194.246 116.744 193.248C116.744 192.249 115.935 191.44 114.936 191.44C113.938 191.44 113.128 192.249 113.128 193.248C113.128 194.246 113.938 195.056 114.936 195.056Z" fill="#FD5750"/>
<path d="M130.936 196.019C132.467 196.019 133.707 194.778 133.707 193.248C133.707 191.717 132.467 190.477 130.936 190.477C129.406 190.477 128.165 191.717 128.165 193.248C128.165 194.778 129.406 196.019 130.936 196.019Z" fill="#FD5750"/>
<path d="M146.936 195.323C148.083 195.323 149.012 194.394 149.012 193.248C149.012 192.102 148.083 191.172 146.936 191.172C145.79 191.172 144.861 192.102 144.861 193.248C144.861 194.394 145.79 195.323 146.936 195.323Z" fill="#FD5750"/>
<path opacity="0.3" d="M162.936 195.63C164.252 195.63 165.318 194.563 165.318 193.248C165.318 191.932 164.252 190.865 162.936 190.865C161.621 190.865 160.554 191.932 160.554 193.248C160.554 194.563 161.621 195.63 162.936 195.63Z" fill="#FD5750"/>
<path d="M178.936 195.144C179.984 195.144 180.833 194.295 180.833 193.248C180.833 192.2 179.984 191.351 178.936 191.351C177.889 191.351 177.04 192.2 177.04 193.248C177.04 194.295 177.889 195.144 178.936 195.144Z" fill="#FD5750"/>
<path d="M194.936 195.803C196.348 195.803 197.492 194.659 197.492 193.248C197.492 191.836 196.348 190.692 194.936 190.692C193.525 190.692 192.381 191.836 192.381 193.248C192.381 194.659 193.525 195.803 194.936 195.803Z" fill="#FD5750"/>
<path opacity="0.3" d="M210.936 195.971C212.44 195.971 213.659 194.752 213.659 193.248C213.659 191.744 212.44 190.525 210.936 190.525C209.433 190.525 208.213 191.744 208.213 193.248C208.213 194.752 209.433 195.971 210.936 195.971Z" fill="#FD5750"/>
<path opacity="0.3" d="M226.936 195.299C228.069 195.299 228.987 194.38 228.987 193.248C228.987 192.115 228.069 191.197 226.936 191.197C225.803 191.197 224.885 192.115 224.885 193.248C224.885 194.38 225.803 195.299 226.936 195.299Z" fill="#FD5750"/>
<path opacity="0.3" d="M242.936 195.421C244.136 195.421 245.109 194.448 245.109 193.248C245.109 192.048 244.136 191.075 242.936 191.075C241.736 191.075 240.764 192.048 240.764 193.248C240.764 194.448 241.736 195.421 242.936 195.421Z" fill="#FD5750"/>
<path opacity="0.3" d="M258.936 196.014C260.464 196.014 261.702 194.775 261.702 193.248C261.702 191.72 260.464 190.482 258.936 190.482C257.409 190.482 256.17 191.72 256.17 193.248C256.17 194.775 257.409 196.014 258.936 196.014Z" fill="#FD5750"/>
<path d="M274.936 195.671C276.275 195.671 277.359 194.586 277.359 193.248C277.359 191.909 276.275 190.824 274.936 190.824C273.598 190.824 272.513 191.909 272.513 193.248C272.513 194.586 273.598 195.671 274.936 195.671Z" fill="#FD5750"/>
<path opacity="0.3" d="M-1.06378 212.117C0.521044 212.117 1.80579 210.833 1.80579 209.248C1.80579 207.663 0.521044 206.378 -1.06378 206.378C-2.64861 206.378 -3.93335 207.663 -3.93335 209.248C-3.93335 210.833 -2.64861 212.117 -1.06378 212.117Z" fill="#FD5750"/>
<path opacity="0.3" d="M14.9364 210.989C15.898 210.989 16.6776 210.209 16.6776 209.248C16.6776 208.286 15.898 207.507 14.9364 207.507C13.9748 207.507 13.1953 208.286 13.1953 209.248C13.1953 210.209 13.9748 210.989 14.9364 210.989Z" fill="#FD5750"/>
<path opacity="0.3" d="M30.9364 211.296C32.0679 211.296 32.9852 210.379 32.9852 209.248C32.9852 208.116 32.0679 207.199 30.9364 207.199C29.8049 207.199 28.8877 208.116 28.8877 209.248C28.8877 210.379 29.8049 211.296 30.9364 211.296Z" fill="#FD5750"/>
<path opacity="0.3" d="M46.9363 211.526C48.1948 211.526 49.215 210.506 49.215 209.248C49.215 207.989 48.1948 206.969 46.9363 206.969C45.6779 206.969 44.6577 207.989 44.6577 209.248C44.6577 210.506 45.6779 211.526 46.9363 211.526Z" fill="#FD5750"/>
<path d="M62.9362 211.18C64.0035 211.18 64.8688 210.315 64.8688 209.248C64.8688 208.18 64.0035 207.315 62.9362 207.315C61.8689 207.315 61.0037 208.18 61.0037 209.248C61.0037 210.315 61.8689 211.18 62.9362 211.18Z" fill="#FD5750"/>
<path d="M78.9362 211.174C80.0001 211.174 80.8625 210.312 80.8625 209.248C80.8625 208.184 80.0001 207.322 78.9362 207.322C77.8723 207.322 77.0098 208.184 77.0098 209.248C77.0098 210.312 77.8723 211.174 78.9362 211.174Z" fill="#FD5750"/>
<path opacity="0.3" d="M94.9362 212.034C96.4752 212.034 97.7228 210.787 97.7228 209.248C97.7228 207.709 96.4752 206.461 94.9362 206.461C93.3973 206.461 92.1497 207.709 92.1497 209.248C92.1497 210.787 93.3973 212.034 94.9362 212.034Z" fill="#FD5750"/>
<path opacity="0.3" d="M110.936 210.899C111.848 210.899 112.588 210.16 112.588 209.248C112.588 208.336 111.848 207.596 110.936 207.596C110.024 207.596 109.285 208.336 109.285 209.248C109.285 210.16 110.024 210.899 110.936 210.899Z" fill="#FD5750"/>
<path d="M126.936 212.08C128.501 212.08 129.769 210.812 129.769 209.248C129.769 207.683 128.501 206.415 126.936 206.415C125.372 206.415 124.104 207.683 124.104 209.248C124.104 210.812 125.372 212.08 126.936 212.08Z" fill="#FD5750"/>
<path d="M142.936 211.383C144.115 211.383 145.071 210.427 145.071 209.248C145.071 208.069 144.115 207.113 142.936 207.113C141.757 207.113 140.801 208.069 140.801 209.248C140.801 210.427 141.757 211.383 142.936 211.383Z" fill="#FD5750"/>
<path opacity="0.3" d="M158.936 211.843C160.37 211.843 161.532 210.681 161.532 209.248C161.532 207.814 160.37 206.652 158.936 206.652C157.503 206.652 156.341 207.814 156.341 209.248C156.341 210.681 157.503 211.843 158.936 211.843Z" fill="#FD5750"/>
<path d="M174.936 212.122C176.524 212.122 177.81 210.835 177.81 209.248C177.81 207.661 176.524 206.374 174.936 206.374C173.349 206.374 172.062 207.661 172.062 209.248C172.062 210.835 173.349 212.122 174.936 212.122Z" fill="#FD5750"/>
<path opacity="0.3" d="M190.936 211.131C191.976 211.131 192.819 210.288 192.819 209.248C192.819 208.208 191.976 207.365 190.936 207.365C189.896 207.365 189.053 208.208 189.053 209.248C189.053 210.288 189.896 211.131 190.936 211.131Z" fill="#FD5750"/>
<path d="M206.936 211.492C208.176 211.492 209.181 210.487 209.181 209.248C209.181 208.008 208.176 207.003 206.936 207.003C205.697 207.003 204.692 208.008 204.692 209.248C204.692 210.487 205.697 211.492 206.936 211.492Z" fill="#FD5750"/>
<path d="M222.936 211.224C224.028 211.224 224.912 210.339 224.912 209.248C224.912 208.156 224.028 207.272 222.936 207.272C221.845 207.272 220.96 208.156 220.96 209.248C220.96 210.339 221.845 211.224 222.936 211.224Z" fill="#FD5750"/>
<path d="M238.936 211.518C240.19 211.518 241.206 210.502 241.206 209.248C241.206 207.994 240.19 206.978 238.936 206.978C237.682 206.978 236.666 207.994 236.666 209.248C236.666 210.502 237.682 211.518 238.936 211.518Z" fill="#FD5750"/>
<path opacity="0.3" d="M254.936 211.912C256.408 211.912 257.601 210.719 257.601 209.248C257.601 207.776 256.408 206.583 254.936 206.583C253.465 206.583 252.272 207.776 252.272 209.248C252.272 210.719 253.465 211.912 254.936 211.912Z" fill="#FD5750"/>
<path opacity="0.3" d="M270.936 211.165C271.995 211.165 272.853 210.306 272.853 209.248C272.853 208.189 271.995 207.331 270.936 207.331C269.878 207.331 269.02 208.189 269.02 209.248C269.02 210.306 269.878 211.165 270.936 211.165Z" fill="#FD5750"/>
<path opacity="0.3" d="M286.936 211.769C288.328 211.769 289.457 210.64 289.457 209.248C289.457 207.855 288.328 206.727 286.936 206.727C285.544 206.727 284.415 207.855 284.415 209.248C284.415 210.64 285.544 211.769 286.936 211.769Z" fill="#FD5750"/>
<path d="M10.9362 228.164C12.5468 228.164 13.8525 226.858 13.8525 225.248C13.8525 223.637 12.5468 222.332 10.9362 222.332C9.32566 222.332 8.02002 223.637 8.02002 225.248C8.02002 226.858 9.32566 228.164 10.9362 228.164Z" fill="#FD5750"/>
<path d="M26.9363 227.658C28.2676 227.658 29.3467 226.579 29.3467 225.248C29.3467 223.917 28.2676 222.837 26.9363 222.837C25.6051 222.837 24.5259 223.917 24.5259 225.248C24.5259 226.579 25.6051 227.658 26.9363 227.658Z" fill="#FD5750"/>
<path opacity="0.3" d="M42.9362 227.962C44.4352 227.962 45.6503 226.747 45.6503 225.248C45.6503 223.749 44.4352 222.534 42.9362 222.534C41.4373 222.534 40.2222 223.749 40.2222 225.248C40.2222 226.747 41.4373 227.962 42.9362 227.962Z" fill="#FD5750"/>
<path opacity="0.3" d="M58.9362 227.565C60.2162 227.565 61.2538 226.528 61.2538 225.248C61.2538 223.968 60.2162 222.93 58.9362 222.93C57.6563 222.93 56.6187 223.968 56.6187 225.248C56.6187 226.528 57.6563 227.565 58.9362 227.565Z" fill="#FD5750"/>
<path d="M74.9362 227.827C76.361 227.827 77.516 226.673 77.516 225.248C77.516 223.823 76.361 222.668 74.9362 222.668C73.5115 222.668 72.3564 223.823 72.3564 225.248C72.3564 226.673 73.5115 227.827 74.9362 227.827Z" fill="#FD5750"/>
<path d="M90.9362 226.949C91.876 226.949 92.6378 226.188 92.6378 225.248C92.6378 224.308 91.876 223.546 90.9362 223.546C89.9964 223.546 89.2346 224.308 89.2346 225.248C89.2346 226.188 89.9964 226.949 90.9362 226.949Z" fill="#FD5750"/>
<path d="M106.936 227.5C108.18 227.5 109.189 226.492 109.189 225.248C109.189 224.004 108.18 222.995 106.936 222.995C105.692 222.995 104.684 224.004 104.684 225.248C104.684 226.492 105.692 227.5 106.936 227.5Z" fill="#FD5750"/>
<path opacity="0.3" d="M122.936 227.982C124.446 227.982 125.67 226.758 125.67 225.248C125.67 223.738 124.446 222.514 122.936 222.514C121.426 222.514 120.202 223.738 120.202 225.248C120.202 226.758 121.426 227.982 122.936 227.982Z" fill="#FD5750"/>
<path opacity="0.3" d="M138.936 227.41C140.131 227.41 141.099 226.442 141.099 225.248C141.099 224.054 140.131 223.085 138.936 223.085C137.742 223.085 136.774 224.054 136.774 225.248C136.774 226.442 137.742 227.41 138.936 227.41Z" fill="#FD5750"/>
<path d="M154.936 227.966C156.437 227.966 157.654 226.749 157.654 225.248C157.654 223.747 156.437 222.53 154.936 222.53C153.435 222.53 152.218 223.747 152.218 225.248C152.218 226.749 153.435 227.966 154.936 227.966Z" fill="#FD5750"/>
<path d="M170.936 227.772C172.33 227.772 173.46 226.642 173.46 225.248C173.46 223.854 172.33 222.724 170.936 222.724C169.542 222.724 168.412 223.854 168.412 225.248C168.412 226.642 169.542 227.772 170.936 227.772Z" fill="#FD5750"/>
<path d="M186.936 227.5C188.18 227.5 189.189 226.492 189.189 225.248C189.189 224.004 188.18 222.995 186.936 222.995C185.692 222.995 184.684 224.004 184.684 225.248C184.684 226.492 185.692 227.5 186.936 227.5Z" fill="#FD5750"/>
<path d="M202.936 228.184C204.558 228.184 205.872 226.869 205.872 225.248C205.872 223.627 204.558 222.312 202.936 222.312C201.315 222.312 200.001 223.627 200.001 225.248C200.001 226.869 201.315 228.184 202.936 228.184Z" fill="#FD5750"/>
<path opacity="0.3" d="M218.936 226.753C219.767 226.753 220.441 226.079 220.441 225.248C220.441 224.417 219.767 223.743 218.936 223.743C218.105 223.743 217.431 224.417 217.431 225.248C217.431 226.079 218.105 226.753 218.936 226.753Z" fill="#FD5750"/>
<path opacity="0.3" d="M234.936 227.44C236.147 227.44 237.128 226.458 237.128 225.248C237.128 224.037 236.147 223.056 234.936 223.056C233.726 223.056 232.744 224.037 232.744 225.248C232.744 226.458 233.726 227.44 234.936 227.44Z" fill="#FD5750"/>
<path d="M250.936 227.089C251.953 227.089 252.778 226.265 252.778 225.248C252.778 224.231 251.953 223.406 250.936 223.406C249.919 223.406 249.095 224.231 249.095 225.248C249.095 226.265 249.919 227.089 250.936 227.089Z" fill="#FD5750"/>
<path d="M266.936 227.294C268.066 227.294 268.982 226.378 268.982 225.248C268.982 224.118 268.066 223.202 266.936 223.202C265.806 223.202 264.89 224.118 264.89 225.248C264.89 226.378 265.806 227.294 266.936 227.294Z" fill="#FD5750"/>
<path d="M282.936 227.654C284.265 227.654 285.342 226.576 285.342 225.248C285.342 223.919 284.265 222.842 282.936 222.842C281.607 222.842 280.53 223.919 280.53 225.248C280.53 226.576 281.607 227.654 282.936 227.654Z" fill="#FD5750"/>
<path opacity="0.3" d="M2.93637 242.883C3.83941 242.883 4.57147 242.151 4.57147 241.248C4.57147 240.345 3.83941 239.613 2.93637 239.613C2.03334 239.613 1.30127 240.345 1.30127 241.248C1.30127 242.151 2.03334 242.883 2.93637 242.883Z" fill="#FD5750"/>
<path d="M18.9364 243.441C20.148 243.441 21.1302 242.459 21.1302 241.248C21.1302 240.036 20.148 239.054 18.9364 239.054C17.7249 239.054 16.7427 240.036 16.7427 241.248C16.7427 242.459 17.7249 243.441 18.9364 243.441Z" fill="#FD5750"/>
<path d="M34.9362 243.91C36.4065 243.91 37.5984 242.718 37.5984 241.248C37.5984 239.777 36.4065 238.585 34.9362 238.585C33.4659 238.585 32.2739 239.777 32.2739 241.248C32.2739 242.718 33.4659 243.91 34.9362 243.91Z" fill="#FD5750"/>
<path opacity="0.3" d="M50.9363 243.499C52.1796 243.499 53.1875 242.491 53.1875 241.248C53.1875 240.004 52.1796 238.997 50.9363 238.997C49.693 238.997 48.6851 240.004 48.6851 241.248C48.6851 242.491 49.693 243.499 50.9363 243.499Z" fill="#FD5750"/>
<path d="M66.9362 243.722C68.3029 243.722 69.4109 242.614 69.4109 241.248C69.4109 239.881 68.3029 238.773 66.9362 238.773C65.5694 238.773 64.4614 239.881 64.4614 241.248C64.4614 242.614 65.5694 243.722 66.9362 243.722Z" fill="#FD5750"/>
<path opacity="0.3" d="M82.9362 244.216C84.5757 244.216 85.9047 242.887 85.9047 241.248C85.9047 239.608 84.5757 238.279 82.9362 238.279C81.2968 238.279 79.9678 239.608 79.9678 241.248C79.9678 242.887 81.2968 244.216 82.9362 244.216Z" fill="#FD5750"/>
<path opacity="0.3" d="M98.9362 242.787C99.7865 242.787 100.476 242.098 100.476 241.248C100.476 240.398 99.7865 239.708 98.9362 239.708C98.086 239.708 97.3967 240.398 97.3967 241.248C97.3967 242.098 98.086 242.787 98.9362 242.787Z" fill="#FD5750"/>
<path d="M114.936 243.149C115.986 243.149 116.837 242.298 116.837 241.248C116.837 240.198 115.986 239.347 114.936 239.347C113.886 239.347 113.035 240.198 113.035 241.248C113.035 242.298 113.886 243.149 114.936 243.149Z" fill="#FD5750"/>
<path d="M130.936 243.901C132.402 243.901 133.589 242.713 133.589 241.248C133.589 239.783 132.402 238.595 130.936 238.595C129.471 238.595 128.283 239.783 128.283 241.248C128.283 242.713 129.471 243.901 130.936 243.901Z" fill="#FD5750"/>
<path opacity="0.3" d="M146.936 244.043C148.48 244.043 149.732 242.792 149.732 241.248C149.732 239.704 148.48 238.452 146.936 238.452C145.392 238.452 144.141 239.704 144.141 241.248C144.141 242.792 145.392 244.043 146.936 244.043Z" fill="#FD5750"/>
<path opacity="0.3" d="M162.936 243.577C164.223 243.577 165.266 242.534 165.266 241.248C165.266 239.961 164.223 238.918 162.936 238.918C161.65 238.918 160.607 239.961 160.607 241.248C160.607 242.534 161.65 243.577 162.936 243.577Z" fill="#FD5750"/>
<path d="M178.936 243.827C180.361 243.827 181.515 242.672 181.515 241.248C181.515 239.824 180.361 238.669 178.936 238.669C177.512 238.669 176.357 239.824 176.357 241.248C176.357 242.672 177.512 243.827 178.936 243.827Z" fill="#FD5750"/>
<path opacity="0.3" d="M194.936 243.818C196.356 243.818 197.506 242.667 197.506 241.248C197.506 239.828 196.356 238.677 194.936 238.677C193.517 238.677 192.366 239.828 192.366 241.248C192.366 242.667 193.517 243.818 194.936 243.818Z" fill="#FD5750"/>
<path d="M210.936 244.037C212.477 244.037 213.725 242.788 213.725 241.248C213.725 239.707 212.477 238.459 210.936 238.459C209.396 238.459 208.147 239.707 208.147 241.248C208.147 242.788 209.396 244.037 210.936 244.037Z" fill="#FD5750"/>
<path d="M226.936 243.649C228.262 243.649 229.337 242.574 229.337 241.248C229.337 239.922 228.262 238.847 226.936 238.847C225.61 238.847 224.535 239.922 224.535 241.248C224.535 242.574 225.61 243.649 226.936 243.649Z" fill="#FD5750"/>
<path opacity="0.3" d="M242.936 243.102C243.96 243.102 244.79 242.272 244.79 241.248C244.79 240.224 243.96 239.394 242.936 239.394C241.912 239.394 241.082 240.224 241.082 241.248C241.082 242.272 241.912 243.102 242.936 243.102Z" fill="#FD5750"/>
<path d="M258.936 243.525C260.194 243.525 261.214 242.506 261.214 241.248C261.214 239.99 260.194 238.97 258.936 238.97C257.679 238.97 256.659 239.99 256.659 241.248C256.659 242.506 257.679 243.525 258.936 243.525Z" fill="#FD5750"/>
<path opacity="0.3" d="M274.936 243.738C276.312 243.738 277.427 242.623 277.427 241.248C277.427 239.872 276.312 238.757 274.936 238.757C273.561 238.757 272.446 239.872 272.446 241.248C272.446 242.623 273.561 243.738 274.936 243.738Z" fill="#FD5750"/>
<path opacity="0.3" d="M-1.06375 259.361C0.103232 259.361 1.04926 258.415 1.04926 257.248C1.04926 256.081 0.103232 255.135 -1.06375 255.135C-2.23073 255.135 -3.17676 256.081 -3.17676 257.248C-3.17676 258.415 -2.23073 259.361 -1.06375 259.361Z" fill="#FD5750"/>
<path d="M14.9363 259.977C16.4437 259.977 17.6658 258.755 17.6658 257.248C17.6658 255.74 16.4437 254.518 14.9363 254.518C13.4288 254.518 12.2068 255.74 12.2068 257.248C12.2068 258.755 13.4288 259.977 14.9363 259.977Z" fill="#FD5750"/>
<path opacity="0.3" d="M30.9364 259.662C32.2695 259.662 33.3503 258.581 33.3503 257.248C33.3503 255.915 32.2695 254.834 30.9364 254.834C29.6032 254.834 28.5225 255.915 28.5225 257.248C28.5225 258.581 29.6032 259.662 30.9364 259.662Z" fill="#FD5750"/>
<path d="M46.9362 258.909C47.8537 258.909 48.5974 258.165 48.5974 257.248C48.5974 256.33 47.8537 255.586 46.9362 255.586C46.0187 255.586 45.2749 256.33 45.2749 257.248C45.2749 258.165 46.0187 258.909 46.9362 258.909Z" fill="#FD5750"/>
<path d="M62.9362 260.109C64.5167 260.109 65.798 258.828 65.798 257.248C65.798 255.667 64.5167 254.386 62.9362 254.386C61.3557 254.386 60.0745 255.667 60.0745 257.248C60.0745 258.828 61.3557 260.109 62.9362 260.109Z" fill="#FD5750"/>
<path d="M78.9362 259.717C80.2997 259.717 81.405 258.611 81.405 257.248C81.405 255.884 80.2997 254.779 78.9362 254.779C77.5726 254.779 76.4673 255.884 76.4673 257.248C76.4673 258.611 77.5726 259.717 78.9362 259.717Z" fill="#FD5750"/>
<path opacity="0.3" d="M94.9363 259.747C96.3164 259.747 97.4353 258.628 97.4353 257.248C97.4353 255.868 96.3164 254.749 94.9363 254.749C93.5561 254.749 92.4373 255.868 92.4373 257.248C92.4373 258.628 93.5561 259.747 94.9363 259.747Z" fill="#FD5750"/>
<path d="M110.936 259.481C112.17 259.481 113.17 258.481 113.17 257.248C113.17 256.014 112.17 255.014 110.936 255.014C109.703 255.014 108.703 256.014 108.703 257.248C108.703 258.481 109.703 259.481 110.936 259.481Z" fill="#FD5750"/>
<path d="M126.936 260.019C128.467 260.019 129.708 258.778 129.708 257.248C129.708 255.717 128.467 254.476 126.936 254.476C125.406 254.476 124.165 255.717 124.165 257.248C124.165 258.778 125.406 260.019 126.936 260.019Z" fill="#FD5750"/>
<path opacity="0.3" d="M142.936 259.285C144.061 259.285 144.973 258.373 144.973 257.248C144.973 256.123 144.061 255.211 142.936 255.211C141.811 255.211 140.899 256.123 140.899 257.248C140.899 258.373 141.811 259.285 142.936 259.285Z" fill="#FD5750"/>
<path opacity="0.3" d="M158.936 258.867C159.831 258.867 160.555 258.142 160.555 257.248C160.555 256.354 159.831 255.629 158.936 255.629C158.042 255.629 157.317 256.354 157.317 257.248C157.317 258.142 158.042 258.867 158.936 258.867Z" fill="#FD5750"/>
<path d="M174.936 258.877C175.836 258.877 176.566 258.148 176.566 257.248C176.566 256.348 175.836 255.618 174.936 255.618C174.036 255.618 173.307 256.348 173.307 257.248C173.307 258.148 174.036 258.877 174.936 258.877Z" fill="#FD5750"/>
<path d="M190.936 259.402C192.126 259.402 193.09 258.438 193.09 257.248C193.09 256.058 192.126 255.094 190.936 255.094C189.747 255.094 188.782 256.058 188.782 257.248C188.782 258.438 189.747 259.402 190.936 259.402Z" fill="#FD5750"/>
<path d="M206.936 259.859C208.378 259.859 209.547 258.69 209.547 257.248C209.547 255.806 208.378 254.637 206.936 254.637C205.494 254.637 204.325 255.806 204.325 257.248C204.325 258.69 205.494 259.859 206.936 259.859Z" fill="#FD5750"/>
<path opacity="0.3" d="M222.936 259.758C224.322 259.758 225.446 258.634 225.446 257.248C225.446 255.862 224.322 254.738 222.936 254.738C221.55 254.738 220.427 255.862 220.427 257.248C220.427 258.634 221.55 259.758 222.936 259.758Z" fill="#FD5750"/>
<path d="M238.936 259.107C239.963 259.107 240.796 258.275 240.796 257.248C240.796 256.221 239.963 255.388 238.936 255.388C237.909 255.388 237.077 256.221 237.077 257.248C237.077 258.275 237.909 259.107 238.936 259.107Z" fill="#FD5750"/>
<path d="M254.936 259.867C256.383 259.867 257.556 258.695 257.556 257.248C257.556 255.801 256.383 254.628 254.936 254.628C253.489 254.628 252.317 255.801 252.317 257.248C252.317 258.695 253.489 259.867 254.936 259.867Z" fill="#FD5750"/>
<path opacity="0.3" d="M270.936 258.803C271.795 258.803 272.492 258.107 272.492 257.248C272.492 256.389 271.795 255.692 270.936 255.692C270.077 255.692 269.381 256.389 269.381 257.248C269.381 258.107 270.077 258.803 270.936 258.803Z" fill="#FD5750"/>
<path d="M286.936 258.916C287.858 258.916 288.604 258.169 288.604 257.248C288.604 256.327 287.858 255.58 286.936 255.58C286.015 255.58 285.268 256.327 285.268 257.248C285.268 258.169 286.015 258.916 286.936 258.916Z" fill="#FD5750"/>
<path d="M10.9362 276.026C12.4707 276.026 13.7145 274.782 13.7145 273.248C13.7145 271.713 12.4707 270.469 10.9362 270.469C9.40184 270.469 8.15796 271.713 8.15796 273.248C8.15796 274.782 9.40184 276.026 10.9362 276.026Z" fill="#FD5750"/>
<path d="M26.9363 274.814C27.8012 274.814 28.5023 274.113 28.5023 273.248C28.5023 272.383 27.8012 271.682 26.9363 271.682C26.0715 271.682 25.3704 272.383 25.3704 273.248C25.3704 274.113 26.0715 274.814 26.9363 274.814Z" fill="#FD5750"/>
<path opacity="0.3" d="M42.9362 274.81C43.7991 274.81 44.4987 274.111 44.4987 273.248C44.4987 272.385 43.7991 271.685 42.9362 271.685C42.0733 271.685 41.3738 272.385 41.3738 273.248C41.3738 274.111 42.0733 274.81 42.9362 274.81Z" fill="#FD5750"/>
<path opacity="0.3" d="M58.9362 276.04C60.4782 276.04 61.7283 274.79 61.7283 273.248C61.7283 271.706 60.4782 270.456 58.9362 270.456C57.3941 270.456 56.144 271.706 56.144 273.248C56.144 274.79 57.3941 276.04 58.9362 276.04Z" fill="#FD5750"/>
<path opacity="0.3" d="M74.9362 275.084C75.9505 275.084 76.7727 274.262 76.7727 273.248C76.7727 272.233 75.9505 271.411 74.9362 271.411C73.9219 271.411 73.0996 272.233 73.0996 273.248C73.0996 274.262 73.9219 275.084 74.9362 275.084Z" fill="#FD5750"/>
<path opacity="0.3" d="M90.9362 275.979C92.4447 275.979 93.6676 274.756 93.6676 273.248C93.6676 271.739 92.4447 270.516 90.9362 270.516C89.4277 270.516 88.2048 271.739 88.2048 273.248C88.2048 274.756 89.4277 275.979 90.9362 275.979Z" fill="#FD5750"/>
<path d="M106.936 275.63C108.252 275.63 109.318 274.563 109.318 273.248C109.318 271.932 108.252 270.866 106.936 270.866C105.621 270.866 104.554 271.932 104.554 273.248C104.554 274.563 105.621 275.63 106.936 275.63Z" fill="#FD5750"/>
<path d="M122.936 275.632C124.253 275.632 125.32 274.565 125.32 273.248C125.32 271.931 124.253 270.864 122.936 270.864C121.62 270.864 120.552 271.931 120.552 273.248C120.552 274.565 121.62 275.632 122.936 275.632Z" fill="#FD5750"/>
<path opacity="0.3" d="M138.936 275.339C140.091 275.339 141.027 274.403 141.027 273.248C141.027 272.093 140.091 271.157 138.936 271.157C137.782 271.157 136.845 272.093 136.845 273.248C136.845 274.403 137.782 275.339 138.936 275.339Z" fill="#FD5750"/>
<path opacity="0.3" d="M154.936 276.031C156.473 276.031 157.719 274.785 157.719 273.248C157.719 271.711 156.473 270.465 154.936 270.465C153.399 270.465 152.154 271.711 152.154 273.248C152.154 274.785 153.399 276.031 154.936 276.031Z" fill="#FD5750"/>
<path opacity="0.3" d="M170.936 274.913C171.856 274.913 172.602 274.168 172.602 273.248C172.602 272.328 171.856 271.583 170.936 271.583C170.017 271.583 169.271 272.328 169.271 273.248C169.271 274.168 170.017 274.913 170.936 274.913Z" fill="#FD5750"/>
<path opacity="0.3" d="M186.936 275.144C187.984 275.144 188.833 274.295 188.833 273.248C188.833 272.2 187.984 271.351 186.936 271.351C185.889 271.351 185.04 272.2 185.04 273.248C185.04 274.295 185.889 275.144 186.936 275.144Z" fill="#FD5750"/>
<path opacity="0.3" d="M202.936 274.987C203.897 274.987 204.676 274.208 204.676 273.248C204.676 272.287 203.897 271.508 202.936 271.508C201.976 271.508 201.197 272.287 201.197 273.248C201.197 274.208 201.976 274.987 202.936 274.987Z" fill="#FD5750"/>
<path opacity="0.3" d="M218.936 276.185C220.558 276.185 221.873 274.87 221.873 273.248C221.873 271.626 220.558 270.311 218.936 270.311C217.314 270.311 215.999 271.626 215.999 273.248C215.999 274.87 217.314 276.185 218.936 276.185Z" fill="#FD5750"/>
<path d="M234.936 275.498C236.179 275.498 237.187 274.491 237.187 273.248C237.187 272.005 236.179 270.997 234.936 270.997C233.693 270.997 232.686 272.005 232.686 273.248C232.686 274.491 233.693 275.498 234.936 275.498Z" fill="#FD5750"/>
<path opacity="0.3" d="M250.936 276.014C252.464 276.014 253.703 274.776 253.703 273.248C253.703 271.72 252.464 270.481 250.936 270.481C249.408 270.481 248.17 271.72 248.17 273.248C248.17 274.776 249.408 276.014 250.936 276.014Z" fill="#FD5750"/>
<path d="M266.936 275.995C268.454 275.995 269.684 274.765 269.684 273.248C269.684 271.73 268.454 270.5 266.936 270.5C265.419 270.5 264.189 271.73 264.189 273.248C264.189 274.765 265.419 275.995 266.936 275.995Z" fill="#FD5750"/>
<path opacity="0.3" d="M282.936 276.004C284.459 276.004 285.693 274.77 285.693 273.248C285.693 271.725 284.459 270.491 282.936 270.491C281.414 270.491 280.18 271.725 280.18 273.248C280.18 274.77 281.414 276.004 282.936 276.004Z" fill="#FD5750"/>
<path d="M2.93631 291.623C4.24801 291.623 5.31134 290.56 5.31134 289.248C5.31134 287.936 4.24801 286.873 2.93631 286.873C1.62461 286.873 0.561279 287.936 0.561279 289.248C0.561279 290.56 1.62461 291.623 2.93631 291.623Z" fill="#FD5750"/>
<path opacity="0.3" d="M18.9363 291.311C20.0756 291.311 20.9991 290.387 20.9991 289.248C20.9991 288.109 20.0756 287.185 18.9363 287.185C17.7971 287.185 16.8735 288.109 16.8735 289.248C16.8735 290.387 17.7971 291.311 18.9363 291.311Z" fill="#FD5750"/>
<path opacity="0.3" d="M34.9363 290.988C35.8974 290.988 36.6765 290.209 36.6765 289.248C36.6765 288.287 35.8974 287.508 34.9363 287.508C33.9752 287.508 33.196 288.287 33.196 289.248C33.196 290.209 33.9752 290.988 34.9363 290.988Z" fill="#FD5750"/>
<path d="M50.9362 290.987C51.8965 290.987 52.675 290.208 52.675 289.248C52.675 288.288 51.8965 287.509 50.9362 287.509C49.9758 287.509 49.1973 288.288 49.1973 289.248C49.1973 290.208 49.9758 290.987 50.9362 290.987Z" fill="#FD5750"/>
<path d="M66.9362 292.134C68.5303 292.134 69.8226 290.842 69.8226 289.248C69.8226 287.654 68.5303 286.361 66.9362 286.361C65.3421 286.361 64.0498 287.654 64.0498 289.248C64.0498 290.842 65.3421 292.134 66.9362 292.134Z" fill="#FD5750"/>
<path opacity="0.3" d="M82.9363 291.079C83.9474 291.079 84.767 290.259 84.767 289.248C84.767 288.237 83.9474 287.417 82.9363 287.417C81.9253 287.417 81.1057 288.237 81.1057 289.248C81.1057 290.259 81.9253 291.079 82.9363 291.079Z" fill="#FD5750"/>
<path opacity="0.3" d="M98.9362 290.999C99.9036 290.999 100.688 290.215 100.688 289.248C100.688 288.28 99.9036 287.496 98.9362 287.496C97.9688 287.496 97.1846 288.28 97.1846 289.248C97.1846 290.215 97.9688 290.999 98.9362 290.999Z" fill="#FD5750"/>
<path opacity="0.3" d="M114.936 291.536C116.2 291.536 117.225 290.512 117.225 289.248C117.225 287.984 116.2 286.959 114.936 286.959C113.673 286.959 112.648 287.984 112.648 289.248C112.648 290.512 113.673 291.536 114.936 291.536Z" fill="#FD5750"/>
<path d="M130.936 292.098C132.511 292.098 133.787 290.822 133.787 289.248C133.787 287.674 132.511 286.397 130.936 286.397C129.362 286.397 128.086 287.674 128.086 289.248C128.086 290.822 129.362 292.098 130.936 292.098Z" fill="#FD5750"/>
<path d="M146.936 291.174C148 291.174 148.862 290.311 148.862 289.248C148.862 288.184 148 287.322 146.936 287.322C145.873 287.322 145.01 288.184 145.01 289.248C145.01 290.311 145.873 291.174 146.936 291.174Z" fill="#FD5750"/>
<path d="M162.936 291.345C164.094 291.345 165.033 290.406 165.033 289.248C165.033 288.09 164.094 287.151 162.936 287.151C161.778 287.151 160.84 288.09 160.84 289.248C160.84 290.406 161.778 291.345 162.936 291.345Z" fill="#FD5750"/>
<path d="M178.936 291.708C180.295 291.708 181.396 290.606 181.396 289.248C181.396 287.889 180.295 286.788 178.936 286.788C177.578 286.788 176.476 287.889 176.476 289.248C176.476 290.606 177.578 291.708 178.936 291.708Z" fill="#FD5750"/>
<path d="M194.936 292.092C196.507 292.092 197.78 290.818 197.78 289.248C197.78 287.677 196.507 286.404 194.936 286.404C193.366 286.404 192.092 287.677 192.092 289.248C192.092 290.818 193.366 292.092 194.936 292.092Z" fill="#FD5750"/>
<path opacity="0.3" d="M210.936 291.954C212.431 291.954 213.642 290.742 213.642 289.248C213.642 287.753 212.431 286.542 210.936 286.542C209.442 286.542 208.23 287.753 208.23 289.248C208.23 290.742 209.442 291.954 210.936 291.954Z" fill="#FD5750"/>
<path opacity="0.3" d="M226.936 291.974C228.442 291.974 229.662 290.753 229.662 289.248C229.662 287.742 228.442 286.522 226.936 286.522C225.431 286.522 224.21 287.742 224.21 289.248C224.21 290.753 225.431 291.974 226.936 291.974Z" fill="#FD5750"/>
<path d="M242.936 291.514C244.188 291.514 245.202 290.499 245.202 289.248C245.202 287.996 244.188 286.982 242.936 286.982C241.685 286.982 240.67 287.996 240.67 289.248C240.67 290.499 241.685 291.514 242.936 291.514Z" fill="#FD5750"/>
<path d="M258.936 291.455C260.155 291.455 261.143 290.467 261.143 289.248C261.143 288.029 260.155 287.041 258.936 287.041C257.718 287.041 256.73 288.029 256.73 289.248C256.73 290.467 257.718 291.455 258.936 291.455Z" fill="#FD5750"/>
<path opacity="0.3" d="M274.936 291.694C276.287 291.694 277.383 290.599 277.383 289.248C277.383 287.897 276.287 286.802 274.936 286.802C273.585 286.802 272.49 287.897 272.49 289.248C272.49 290.599 273.585 291.694 274.936 291.694Z" fill="#FD5750"/>
<path opacity="0.3" d="M-1.06366 307.259C0.0471451 307.259 0.947632 306.359 0.947632 305.248C0.947632 304.137 0.0471451 303.237 -1.06366 303.237C-2.17446 303.237 -3.07495 304.137 -3.07495 305.248C-3.07495 306.359 -2.17446 307.259 -1.06366 307.259Z" fill="#FD5750"/>
<path opacity="0.3" d="M14.9364 308.188C16.5601 308.188 17.8764 306.871 17.8764 305.248C17.8764 303.624 16.5601 302.308 14.9364 302.308C13.3126 302.308 11.9963 303.624 11.9963 305.248C11.9963 306.871 13.3126 308.188 14.9364 308.188Z" fill="#FD5750"/>
<path d="M30.9364 307.476C32.167 307.476 33.1646 306.478 33.1646 305.248C33.1646 304.017 32.167 303.02 30.9364 303.02C29.7058 303.02 28.7083 304.017 28.7083 305.248C28.7083 306.478 29.7058 307.476 30.9364 307.476Z" fill="#FD5750"/>
<path d="M46.9362 307.632C48.2533 307.632 49.3209 306.565 49.3209 305.248C49.3209 303.931 48.2533 302.863 46.9362 302.863C45.6192 302.863 44.5515 303.931 44.5515 305.248C44.5515 306.565 45.6192 307.632 46.9362 307.632Z" fill="#FD5750"/>
<path opacity="0.3" d="M62.9362 308.079C64.4999 308.079 65.7675 306.811 65.7675 305.248C65.7675 303.684 64.4999 302.417 62.9362 302.417C61.3726 302.417 60.105 303.684 60.105 305.248C60.105 306.811 61.3726 308.079 62.9362 308.079Z" fill="#FD5750"/>
<path d="M78.9363 307.184C80.0054 307.184 80.8721 306.317 80.8721 305.248C80.8721 304.179 80.0054 303.312 78.9363 303.312C77.8672 303.312 77.0005 304.179 77.0005 305.248C77.0005 306.317 77.8672 307.184 78.9363 307.184Z" fill="#FD5750"/>
<path opacity="0.3" d="M94.9363 307.995C96.4533 307.995 97.683 306.765 97.683 305.248C97.683 303.731 96.4533 302.501 94.9363 302.501C93.4194 302.501 92.1897 303.731 92.1897 305.248C92.1897 306.765 93.4194 307.995 94.9363 307.995Z" fill="#FD5750"/>
<path opacity="0.3" d="M110.936 307.387C112.118 307.387 113.076 306.429 113.076 305.248C113.076 304.066 112.118 303.108 110.936 303.108C109.755 303.108 108.797 304.066 108.797 305.248C108.797 306.429 109.755 307.387 110.936 307.387Z" fill="#FD5750"/>
<path d="M126.936 307.74C128.313 307.74 129.428 306.624 129.428 305.248C129.428 303.872 128.313 302.756 126.936 302.756C125.56 302.756 124.444 303.872 124.444 305.248C124.444 306.624 125.56 307.74 126.936 307.74Z" fill="#FD5750"/>
<path d="M142.936 307.724C144.304 307.724 145.412 306.615 145.412 305.248C145.412 303.88 144.304 302.772 142.936 302.772C141.569 302.772 140.46 303.88 140.46 305.248C140.46 306.615 141.569 307.724 142.936 307.724Z" fill="#FD5750"/>
<path d="M158.936 308.136C160.531 308.136 161.824 306.843 161.824 305.248C161.824 303.653 160.531 302.36 158.936 302.36C157.341 302.36 156.048 303.653 156.048 305.248C156.048 306.843 157.341 308.136 158.936 308.136Z" fill="#FD5750"/>
<path opacity="0.3" d="M174.936 307.139C175.981 307.139 176.828 306.293 176.828 305.248C176.828 304.203 175.981 303.356 174.936 303.356C173.892 303.356 173.045 304.203 173.045 305.248C173.045 306.293 173.892 307.139 174.936 307.139Z" fill="#FD5750"/>
<path d="M190.936 307.786C192.338 307.786 193.474 306.649 193.474 305.248C193.474 303.846 192.338 302.709 190.936 302.709C189.534 302.709 188.398 303.846 188.398 305.248C188.398 306.649 189.534 307.786 190.936 307.786Z" fill="#FD5750"/>
<path opacity="0.3" d="M206.936 306.923C207.862 306.923 208.612 306.173 208.612 305.248C208.612 304.323 207.862 303.573 206.936 303.573C206.011 303.573 205.261 304.323 205.261 305.248C205.261 306.173 206.011 306.923 206.936 306.923Z" fill="#FD5750"/>
<path opacity="0.3" d="M222.936 307.205C224.017 307.205 224.894 306.329 224.894 305.248C224.894 304.167 224.017 303.291 222.936 303.291C221.855 303.291 220.979 304.167 220.979 305.248C220.979 306.329 221.855 307.205 222.936 307.205Z" fill="#FD5750"/>
<path d="M238.936 307.055C239.935 307.055 240.744 306.246 240.744 305.248C240.744 304.249 239.935 303.44 238.936 303.44C237.938 303.44 237.129 304.249 237.129 305.248C237.129 306.246 237.938 307.055 238.936 307.055Z" fill="#FD5750"/>
<path opacity="0.3" d="M254.936 308C256.457 308 257.689 306.768 257.689 305.248C257.689 303.728 256.457 302.495 254.936 302.495C253.416 302.495 252.184 303.728 252.184 305.248C252.184 306.768 253.416 308 254.936 308Z" fill="#FD5750"/>
<path opacity="0.3" d="M270.936 307.063C271.939 307.063 272.752 306.25 272.752 305.248C272.752 304.245 271.939 303.433 270.936 303.433C269.934 303.433 269.121 304.245 269.121 305.248C269.121 306.25 269.934 307.063 270.936 307.063Z" fill="#FD5750"/>
<path d="M286.936 307.983C288.447 307.983 289.671 306.758 289.671 305.248C289.671 303.737 288.447 302.513 286.936 302.513C285.426 302.513 284.201 303.737 284.201 305.248C284.201 306.758 285.426 307.983 286.936 307.983Z" fill="#FD5750"/>
<path d="M10.9364 323.23C12.0313 323.23 12.9189 322.343 12.9189 321.248C12.9189 320.153 12.0313 319.265 10.9364 319.265C9.84147 319.265 8.95386 320.153 8.95386 321.248C8.95386 322.343 9.84147 323.23 10.9364 323.23Z" fill="#FD5750"/>
<path opacity="0.3" d="M26.9364 323.738C28.3114 323.738 29.426 322.623 29.426 321.248C29.426 319.873 28.3114 318.758 26.9364 318.758C25.5614 318.758 24.4468 319.873 24.4468 321.248C24.4468 322.623 25.5614 323.738 26.9364 323.738Z" fill="#FD5750"/>
<path opacity="0.3" d="M42.9364 324.035C44.4756 324.035 45.7234 322.787 45.7234 321.248C45.7234 319.709 44.4756 318.461 42.9364 318.461C41.3972 318.461 40.1494 319.709 40.1494 321.248C40.1494 322.787 41.3972 324.035 42.9364 324.035Z" fill="#FD5750"/>
<path opacity="0.3" d="M58.9363 324.225C60.5807 324.225 61.9137 322.892 61.9137 321.248C61.9137 319.604 60.5807 318.271 58.9363 318.271C57.292 318.271 55.959 319.604 55.959 321.248C55.959 322.892 57.292 324.225 58.9363 324.225Z" fill="#FD5750"/>
<path d="M74.9363 323.867C76.3829 323.867 77.5557 322.694 77.5557 321.248C77.5557 319.801 76.3829 318.628 74.9363 318.628C73.4896 318.628 72.3169 319.801 72.3169 321.248C72.3169 322.694 73.4896 323.867 74.9363 323.867Z" fill="#FD5750"/>
<path opacity="0.3" d="M90.9363 323.159C91.992 323.159 92.8478 322.304 92.8478 321.248C92.8478 320.192 91.992 319.336 90.9363 319.336C89.8807 319.336 89.0249 320.192 89.0249 321.248C89.0249 322.304 89.8807 323.159 90.9363 323.159Z" fill="#FD5750"/>
<path d="M106.936 323.763C108.325 323.763 109.451 322.637 109.451 321.248C109.451 319.859 108.325 318.733 106.936 318.733C105.548 318.733 104.422 319.859 104.422 321.248C104.422 322.637 105.548 323.763 106.936 323.763Z" fill="#FD5750"/>
<path d="M122.936 323.516C124.189 323.516 125.205 322.501 125.205 321.248C125.205 319.995 124.189 318.979 122.936 318.979C121.683 318.979 120.667 319.995 120.667 321.248C120.667 322.501 121.683 323.516 122.936 323.516Z" fill="#FD5750"/>
<path opacity="0.3" d="M138.936 323.129C139.975 323.129 140.818 322.287 140.818 321.248C140.818 320.209 139.975 319.367 138.936 319.367C137.897 319.367 137.055 320.209 137.055 321.248C137.055 322.287 137.897 323.129 138.936 323.129Z" fill="#FD5750"/>
<path opacity="0.3" d="M154.936 323.064C155.939 323.064 156.752 322.251 156.752 321.248C156.752 320.245 155.939 319.432 154.936 319.432C153.933 319.432 153.12 320.245 153.12 321.248C153.12 322.251 153.933 323.064 154.936 323.064Z" fill="#FD5750"/>
<path d="M170.936 323.477C172.167 323.477 173.165 322.479 173.165 321.248C173.165 320.017 172.167 319.019 170.936 319.019C169.705 319.019 168.707 320.017 168.707 321.248C168.707 322.479 169.705 323.477 170.936 323.477Z" fill="#FD5750"/>
<path opacity="0.3" d="M186.936 323.828C188.361 323.828 189.517 322.673 189.517 321.248C189.517 319.823 188.361 318.667 186.936 318.667C185.511 318.667 184.356 319.823 184.356 321.248C184.356 322.673 185.511 323.828 186.936 323.828Z" fill="#FD5750"/>
<path opacity="0.3" d="M202.936 324.042C204.48 324.042 205.731 322.791 205.731 321.248C205.731 319.705 204.48 318.454 202.936 318.454C201.393 318.454 200.142 319.705 200.142 321.248C200.142 322.791 201.393 324.042 202.936 324.042Z" fill="#FD5750"/>
<path opacity="0.3" d="M218.936 324.094C220.508 324.094 221.783 322.82 221.783 321.248C221.783 319.676 220.508 318.402 218.936 318.402C217.365 318.402 216.09 319.676 216.09 321.248C216.09 322.82 217.365 324.094 218.936 324.094Z" fill="#FD5750"/>
<path opacity="0.3" d="M234.936 324.011C236.462 324.011 237.699 322.774 237.699 321.248C237.699 319.722 236.462 318.485 234.936 318.485C233.41 318.485 232.173 319.722 232.173 321.248C232.173 322.774 233.41 324.011 234.936 324.011Z" fill="#FD5750"/>
<path d="M250.936 324.004C252.458 324.004 253.692 322.77 253.692 321.248C253.692 319.726 252.458 318.492 250.936 318.492C249.414 318.492 248.18 319.726 248.18 321.248C248.18 322.77 249.414 324.004 250.936 324.004Z" fill="#FD5750"/>
<path d="M266.936 323.529C268.196 323.529 269.217 322.507 269.217 321.248C269.217 319.988 268.196 318.967 266.936 318.967C265.676 318.967 264.655 319.988 264.655 321.248C264.655 322.507 265.676 323.529 266.936 323.529Z" fill="#FD5750"/>
<path d="M282.936 323.503C284.182 323.503 285.191 322.493 285.191 321.248C285.191 320.002 284.182 318.993 282.936 318.993C281.691 318.993 280.681 320.002 280.681 321.248C280.681 322.493 281.691 323.503 282.936 323.503Z" fill="#FD5750"/>
</g>
</g>
<defs>
<clipPath id="clip0">
<rect width="286" height="322" fill="white"/>
</clipPath>
</defs>
</svg>
