<svg width="308" height="42" viewBox="0 0 308 42" fill="none" xmlns="http://www.w3.org/2000/svg">
<path d="M242.871 14.617C242.871 14.617 240.685 13.8768 237.747 13.8768C234.787 13.8768 230.289 15.4141 230.289 21.2219C230.289 26.8474 233.432 29.2502 237.986 29.2502C240.617 29.2502 243.167 28.157 243.167 28.157L242.245 25.2303C242.245 25.2303 240.412 26.1528 238.134 26.1528C235.857 26.1528 233.511 25.5606 233.511 21.3016C233.511 17.8056 235.994 16.9515 237.861 16.9515C239.694 16.9515 242.006 17.6006 242.006 17.6006L242.871 14.617Z" fill="white"/>
<path d="M250.672 8.27399H242.77V10.9956H247.506V28.9996H256.775V25.8908H250.672V8.27399Z" fill="white"/>
<path d="M266.369 13.9336C261.484 13.9336 258.523 16.7805 258.523 21.5406C258.523 26.0729 261.484 29.2728 266.369 29.2728C270.992 29.2728 273.884 26.0729 273.884 21.5406C273.895 16.7691 270.992 13.9336 266.369 13.9336ZM266.369 26.2209C262.873 26.2209 261.746 24.2395 261.746 21.5406C261.746 19.2061 262.873 16.7464 266.369 16.7464C269.568 16.7464 270.809 19.2061 270.809 21.5406C270.809 24.2395 269.568 26.2209 266.369 26.2209Z" fill="white"/>
<path d="M282.252 29.1819C285.623 29.1819 286.511 26.5741 286.511 26.5741L286.693 28.9997H289.767V14.1957H286.454V15.8583V21.6319C286.454 24.1144 285.156 26.2211 282.844 26.2211C280.328 26.2211 279.679 24.4788 279.679 22.6112C279.679 21.3358 279.713 17.5437 279.679 14.2071H276.57V22.4632C276.57 27.2574 278.495 29.1819 282.252 29.1819Z" fill="white"/>
<path d="M300.132 29.2728C303.206 29.2728 304.869 26.9953 304.869 26.9953L304.982 29.0109H308V8.28531H304.982V15.9492C304.982 15.9492 303.559 14.0247 300.36 14.0247C295.532 14.0247 292.753 17.7826 292.753 21.3925C292.765 25.5035 295.065 29.2728 300.132 29.2728ZM300.542 16.9172C303.855 16.9172 304.982 19.3769 304.982 21.6203C304.982 23.6929 303.764 26.3234 300.451 26.3234C296.841 26.3234 296.01 23.9206 296.01 21.3812C296.021 18.7278 297.581 16.9172 300.542 16.9172Z" fill="white"/>
<path d="M6.77495 19.9463C3.82585 19.6275 3.35901 19.2972 3.33624 18.4204C3.33624 17.3044 4.86202 16.7464 6.25117 16.8033C8.87006 16.8944 11.2271 17.7713 11.2271 17.7713L12.1721 14.856C12.0583 14.8219 9.40523 14.002 6.34227 13.9109C3.16544 13.8198 0.250502 15.2887 0.341593 18.4773C0.398526 22.3036 4.05359 22.7135 6.43336 22.9755C9.14334 23.2943 9.87208 23.5904 9.9404 24.4217C9.97456 25.0366 9.9404 26.6878 6.11454 26.3918C3.58674 26.1868 1.32083 25.0366 1.28667 25.0139L0 27.6558C0.148024 27.7127 2.91494 29.0679 6.1487 29.159C7.79974 29.2159 10.1567 29.1248 11.6484 27.5989C12.2405 27.0409 12.9123 25.9476 12.8212 24.2736C12.6504 20.6523 9.12056 20.231 6.77495 19.9463Z" fill="white"/>
<path d="M22.6691 13.911C16.4294 13.911 15.3135 19.3884 15.3135 21.4724C15.3135 23.4425 16.0764 29.125 22.8172 29.125C25.6979 29.125 28.5559 27.952 28.5559 27.952L27.7931 25.3329C27.7931 25.3329 25.2653 26.335 22.9424 26.335C19.9705 26.335 18.4675 24.456 18.4675 22.6567H29.353V20.9486C29.353 20.9486 29.5921 13.911 22.6691 13.911ZM26.3811 20.0262H18.4903C18.4903 20.0262 18.8433 16.8148 22.6691 16.8148C26.5861 16.8262 26.3811 20.0262 26.3811 20.0262Z" fill="white"/>
<path d="M36.0394 17.0312L35.8686 14.1729H32.9878V28.8858H36.2785V19.6732C36.2785 18.6483 37.5993 17.2589 38.9315 17.2589H44.0555V14.1729H39.3756C36.7226 14.1729 36.0394 16.5871 36.0394 17.0312Z" fill="white"/>
<path d="M53.4703 26.0389L49.9975 14.1729H46.6726L51.1475 28.8858H55.8273L60.5072 14.1729H57.3531L53.4703 26.0389Z" fill="white"/>
<path d="M69.7546 13.911C63.5148 13.911 62.3989 19.3884 62.3989 21.4724C62.3989 23.4425 63.1618 29.125 69.9026 29.125C72.7834 29.125 75.6414 27.952 75.6414 27.952L74.8785 25.3329C74.8785 25.3329 72.3507 26.335 70.0165 26.335C67.0446 26.335 65.5416 24.456 65.5416 22.6567H76.4271V20.9486C76.4384 20.9486 76.6776 13.911 69.7546 13.911ZM73.4666 20.0262H65.5757C65.5757 20.0262 65.9287 16.8148 69.7546 16.8148C73.6715 16.8262 73.4666 20.0262 73.4666 20.0262Z" fill="white"/>
<path d="M83.1223 17.0312L82.9401 14.1729H80.0593V28.8858H83.3614V19.6732C83.3614 18.6483 84.6822 17.2589 86.0145 17.2589H91.1384V14.1729H86.4585C83.8055 14.1729 83.1223 16.5871 83.1223 17.0312Z" fill="white"/>
<path d="M99.1884 8.28531H91.3318V10.9956H96.0458V28.8971H105.257V25.811H99.1884V8.28531Z" fill="white"/>
<path d="M114.763 13.911C108.524 13.911 107.408 19.3884 107.408 21.4724C107.408 23.4425 108.171 29.125 114.911 29.125C117.792 29.125 120.65 27.952 120.65 27.952L119.887 25.3329C119.887 25.3329 117.359 26.335 115.025 26.335C112.053 26.335 110.55 24.456 110.55 22.6567H121.436V20.9486C121.447 20.9486 121.686 13.911 114.763 13.911ZM118.475 20.0262H110.585C110.585 20.0262 110.938 16.8148 114.763 16.8148C118.68 16.8262 118.475 20.0262 118.475 20.0262Z" fill="white"/>
<path d="M130.625 19.9463C127.676 19.6275 127.209 19.2972 127.186 18.4204C127.186 17.3044 128.712 16.7464 130.101 16.8033C132.72 16.8944 135.077 17.7713 135.077 17.7713L136.022 14.856C135.908 14.8219 133.255 14.002 130.192 13.9109C127.015 13.8198 124.101 15.2887 124.192 18.4773C124.249 22.3036 127.904 22.7135 130.283 22.9755C132.993 23.2943 133.722 23.5904 133.79 24.4217C133.825 25.0366 133.79 26.6878 129.965 26.3918C127.437 26.1868 125.171 25.0366 125.137 25.0139L123.873 27.6672C124.021 27.7241 126.788 29.0793 130.022 29.1704C131.673 29.2273 134.03 29.1362 135.521 27.6103C136.113 27.0523 136.785 25.959 136.694 24.285C136.512 20.6524 132.982 20.231 130.625 19.9463Z" fill="white"/>
<path d="M145.918 19.9463C142.98 19.6275 142.502 19.2972 142.479 18.4204C142.479 17.3044 144.005 16.7464 145.394 16.8033C148.013 16.8944 150.37 17.7713 150.37 17.7713L151.315 14.856C151.202 14.8219 148.548 14.002 145.486 13.9109C142.309 13.8198 139.394 15.2887 139.485 18.4773C139.542 22.3036 143.197 22.7135 145.577 22.9755C148.287 23.2943 149.015 23.5904 149.084 24.4217C149.118 25.0366 149.084 26.6878 145.258 26.3918C142.73 26.1868 140.464 25.0366 140.43 25.0139L139.166 27.6672C139.314 27.7241 142.081 29.0793 145.315 29.1704C146.966 29.2273 149.311 29.1362 150.814 27.6103C151.406 27.0523 152.078 25.959 151.987 24.285C151.805 20.6524 148.275 20.231 145.918 19.9463Z" fill="white"/>
<g clip-path="url(#clip0)">
<path d="M215.588 20.9673C215.036 20.0441 212.88 16.7843 212.88 16.7843H212.86C212.549 16.3029 212.168 15.8612 211.737 15.4699C211.585 15.3312 211.416 15.2025 211.241 15.0787C210.714 14.4992 209.971 14.0564 209.094 13.7553C209.108 13.5245 209.115 13.2927 209.115 13.059C209.115 5.84603 202.532 -1.52588e-05 194.412 -1.52588e-05C190.253 -1.52588e-05 186.498 1.5343 183.823 3.99871H182.345L182.339 4.01456L180.614 4.06507C179.551 4.09479 178.528 4.29587 177.575 4.66731C173.974 6.05106 171.557 9.57236 171.557 13.4344C171.557 13.7454 171.576 14.0564 171.607 14.4071L171.627 14.5675C171.647 14.6775 171.668 14.7884 171.687 14.9083L171.958 17.135L169.772 17.657C169.501 17.7174 169.22 17.7877 168.969 17.8779C167.064 18.6099 165.79 20.476 165.79 22.5125C165.79 22.6631 165.79 22.8136 165.81 22.9335L165.829 23.1336V23.1435C165.849 23.4139 167.224 33.1447 174.686 33.1447H183.743L183.221 34.6196L187.414 41.5711L199.209 33.1447H210.753C213.041 33.1447 215.187 32.0017 216.461 30.0949C217.223 28.9717 217.644 27.6374 217.644 26.2636C217.644 24.3172 217.012 23.3742 215.588 20.9673ZM174.687 31.1389C171.888 31.1389 170.194 29.1926 169.19 27.2066C169.682 27.367 170.204 27.4671 170.755 27.4671H185.74L184.446 31.1389H174.687ZM214.796 28.9826C213.893 30.3267 212.379 31.1389 210.753 31.1389H198.568L198.046 31.5104L188.016 38.6728L186.873 36.7869L186.141 35.5626L185.579 34.6394L186.713 33.8371L188.417 32.6138L195.608 27.4681H207.153C209.44 27.4681 211.576 26.3349 212.86 24.4391C213.361 23.6972 213.693 22.8641 213.874 22.0014L214.104 22.4025C215.348 24.4886 215.639 25.0304 215.639 26.2646C215.639 27.2264 215.347 28.1594 214.796 28.9826Z" fill="#FD5750"/>
</g>
<defs>
<clipPath id="clip0">
<rect width="51.8546" height="41.5711" fill="white" transform="translate(165.79)"/>
</clipPath>
</defs>
</svg>
