<svg width="53" height="42" viewBox="0 0 53 42" fill="none" xmlns="http://www.w3.org/2000/svg">
<g clip-path="url(#clip0)">
<path d="M50.5881 20.9673C50.0364 20.0441 47.88 16.7843 47.88 16.7843H47.8602C47.5492 16.3029 47.1679 15.8612 46.737 15.4699C46.5854 15.3313 46.4161 15.2025 46.2407 15.0787C45.7138 14.4992 44.9709 14.0565 44.0943 13.7553C44.1082 13.5245 44.1151 13.2928 44.1151 13.059C44.1151 5.84604 37.5321 0 29.4118 0C25.2526 0 21.4976 1.53431 18.8232 3.99872H17.3453L17.3394 4.01457L15.6139 4.06509C14.5511 4.09481 13.5279 4.29588 12.575 4.66732C8.97445 6.05108 6.5566 9.57237 6.5566 13.4344C6.5566 13.7454 6.57641 14.0565 6.60711 14.4071L6.62692 14.5676C6.64673 14.6775 6.66753 14.7884 6.68734 14.9083L6.95776 17.135L4.77168 17.657C4.50127 17.7174 4.21996 17.7877 3.96936 17.8779C2.0636 18.6099 0.789795 20.476 0.789795 22.5125C0.789795 22.6631 0.789795 22.8136 0.809605 22.9335L0.829416 23.1336V23.1435C0.849226 23.4139 2.22407 33.1447 9.68564 33.1447H18.7429L18.2209 34.6196L22.4138 41.5711L34.2089 33.1447H45.7534C48.0405 33.1447 50.187 32.0017 51.4608 30.0949C52.2235 28.9717 52.6444 27.6375 52.6444 26.2636C52.6444 24.3172 52.0125 23.3743 50.5881 20.9673ZM9.68663 31.1389C6.88842 31.1389 5.19364 29.1926 4.19025 27.2066C4.68154 27.367 5.20355 27.4671 5.75527 27.4671H20.7398L19.4462 31.1389H9.68663ZM49.7957 28.9826C48.8933 30.3267 47.3788 31.1389 45.7534 31.1389H33.568L33.046 31.5104L23.016 38.6728L21.873 36.7869L21.141 35.5626L20.5794 34.6394L21.7125 33.8371L23.4172 32.6138L30.6084 27.4681H42.1529C44.44 27.4681 46.5755 26.3349 47.8602 24.4391C48.3614 23.6972 48.6933 22.8641 48.8735 22.0014L49.1043 22.4026C50.3484 24.4886 50.6386 25.0304 50.6386 26.2646C50.6386 27.2264 50.3474 28.1595 49.7957 28.9826Z" fill="#FD5750"/>
</g>
<defs>
<clipPath id="clip0">
<rect width="51.8546" height="41.5711" fill="white" transform="translate(0.789551)"/>
</clipPath>
</defs>
</svg>
